STARTFONT 2.1
COMMENT
COMMENT Converted from OpenType font "Font 90 Icons.ttf" by "otf2bdf 3.0".
COMMENT
FONT -FreeType-Font 90 Icons-Medium-R-Normal--39-280-100-100-P-146-ISO10646-1
SIZE 28 100 100
FONTBOUNDINGBOX 42 40 0 -8
STARTPROPERTIES 19
FOUNDRY "FreeType"
FAMILY_NAME "Font 90 Icons"
WEIGHT_NAME "Medium"
SLANT "R"
SETWIDTH_NAME "Normal"
ADD_STYLE_NAME ""
PIXEL_SIZE 39
POINT_SIZE 280
RESOLUTION_X 100
RESOLUTION_Y 100
SPACING "P"
AVERAGE_WIDTH 146
CHARSET_REGISTRY "ISO10646"
CHARSET_ENCODING "1"
FONT_ASCENT 32
FONT_DESCENT 7
COPYRIGHT "Typeface © (el-harrak.blogspot.com). <darrati10@gmail.com>. All Rights Reserved"
_OTF_FONTFILE "Font 90 Icons.ttf"
_OTF_PSNAME "Font 90 Icons"
ENDPROPERTIES
CHARS 242
STARTCHAR 0000
ENCODING 0
SWIDTH 0 0
DWIDTH 0 0
BBX 0 0 0 0
BITMAP
ENDCHAR
STARTCHAR 001D
ENCODING 29
SWIDTH 0 0
DWIDTH 0 0
BBX 0 0 0 0
BITMAP
ENDCHAR
STARTCHAR 0020
ENCODING 32
SWIDTH 257 0
DWIDTH 10 0
BBX 0 0 0 0
BITMAP
ENDCHAR
STARTCHAR 0021
ENCODING 33
SWIDTH 977 0
DWIDTH 38 0
BBX 38 37 0 -6
BITMAP
0003FF0000
001FF9E000
007FFF3800
00FFFF8C00
01FFFFC200
07FFFFE180
07FFFFE080
0FFFCFF040
1FFF87F060
3FFF87F030
3FFF87F010
3FFF87F018
7FFFFFE008
7FFFFFE008
7FFFFFC008
FFFFFFC00C
FFFFFF800C
FFFFFE0004
FFFFF00004
FFFE000004
FFF800000C
FFF000000C
7FF0000008
7FE0000008
7FE0000008
3FC0780018
3FC0780010
3FC07C0030
1FC0780060
0FE0300040
07E00000C0
07E0000180
03F0000300
00F8000C00
007C003800
001F00E000
0007FF8000
ENDCHAR
STARTCHAR 0022
ENCODING 34
SWIDTH 977 0
DWIDTH 38 0
BBX 38 30 0 -3
BITMAP
0007FF8000
0006018000
0006008000
0006008000
0006008000
7FFFFFFFF8
7FFFFFFFF8
FFFFFFFFFC
FFFFFFFFFC
FFFFFFFFFC
FFFFFFFFFC
FFFFFFFFFC
FFFFFFFFFC
FFFFFFFFFC
FFFFFFFFFC
FFFFFFFFFC
FFFFFFFFFC
FFFFFFFFFC
FFFFFFFFFC
FFFFFFFFFC
FFFFFFFFFC
FFFFFFFFFC
FFFFFFFFFC
FFFFFFFFFC
FFFFFFFFFC
FFFFFFFFFC
FFFFFFFFFC
7FFFFFFFFC
7FFFFFFFF8
0FFFFFFFC0
ENDCHAR
STARTCHAR 0023
ENCODING 35
SWIDTH 977 0
DWIDTH 38 0
BBX 36 39 1 -8
BITMAP
003FE00000
30FFFC0000
F3FFFF0000
7BFFFFE180
7BFFFFFF80
7BFFFFFF80
7BFFFFFF80
79FFFFFFC0
3DFFFFFFC0
3DFFFFFFC0
3DFFFFFFC0
3DFFFFFFC0
3DFFFFFFC0
3CFFFFFFE0
1EFFFFFFE0
1EFFFFFFE0
1EFFFFFFE0
1EFFFFFFE0
1E7E03FFE0
1F70007FE0
0F60001FF0
0F400003F0
0F00000000
0F00000000
0F00000000
0780000000
0780000000
0780000000
0780000000
0780000000
0780000000
03C0000000
03C0000000
03C0000000
03C0000000
03C0000000
01E0000000
01E0000000
01E0000000
ENDCHAR
STARTCHAR 0024
ENCODING 36
SWIDTH 977 0
DWIDTH 38 0
BBX 38 37 0 -6
BITMAP
0780000000
0FC0000000
1FE0000000
7FF0000000
7FF8000000
FFFC000000
FFFE000000
FFFF000000
7FFFC00000
7FFFE00000
1FFFB00000
0FFF780000
07FEFE0000
03FDFF0000
01FBFC0000
01F7F80000
00EFF00000
005FE00000
003FD00000
003FF80000
001F8C0000
000F060000
0006030000
0000018000
000000C000
0000006000
0000003000
0000001800
0000000800
0000000400
0000000200
0000000100
0000000080
0000000040
0000000020
0000000010
000000000C
ENDCHAR
STARTCHAR 0025
ENCODING 37
SWIDTH 977 0
DWIDTH 38 0
BBX 36 40 1 -8
BITMAP
0000F00000
0001F80000
0001F80000
0001F80000
000FFF0000
003FFFC000
00FFFFF000
01FFFFF800
3BFFF7FDC0
7FF8F1FFE0
FFE0F07FF0
FFC0F03FF0
7FC0603FE0
7FE0607FE0
1FF060FFC0
3FF861FFC0
3EFEF7F7C0
3E0FFF07C0
3E03FC07C0
3E01FC07C0
3E03FC07C0
3E0FFF07C0
3E7FFFF7C0
3FFC63FFC0
1FF861FFC0
3FF060FFE0
7FC0F07FF0
FFC0F03FF0
FFE0F07FF0
7FF0F0FFF0
3FFEFBFFE0
01FFFFF800
00FFFFF000
003FFFE000
001FFF8000
0001FC0000
0001F80000
0001F80000
0000F00000
0000200000
ENDCHAR
STARTCHAR 0026
ENCODING 38
SWIDTH 977 0
DWIDTH 38 0
BBX 38 37 0 -6
BITMAP
0003FF0000
001FFFE000
007E01F800
00F0003C00
01C0000E00
0383FF0700
070FFFC380
0E1FFFE1C0
1C3FFFF8E0
187FFFF860
38FFFFFC70
31FFFFFE30
71E7FFFE38
63F3FF3F18
63F9FE7F18
E3FCFCFF1C
E7FE79FF9C
E7FF33FF8C
E7FF87FF8C
E7FFC7FF8C
E7FFCFFF9C
E7FFFFFF9C
63FFFFFF18
63FFFFFF18
71FFFFFE38
31FFFFFE30
38FFFFFC70
18FFFFFC60
1C7FFFF8E0
0E1FFFE1C0
070FFFC380
0783FF0780
03C0000F00
00F0003C00
007E01F800
001FFFE000
0003FF0000
ENDCHAR
STARTCHAR 0027
ENCODING 39
SWIDTH 977 0
DWIDTH 38 0
BBX 38 38 0 -7
BITMAP
003FF00000
00FFFC0000
03FFFF0000
07FFFF8000
0FFFFFC000
1FF8FFE000
1FE01FE000
3F8307F000
3F0783F000
7E0781F800
7E0781F800
7C0780F800
FC7FF8F800
FCFFFCFC00
FCFFFCFC00
FC7FF8FC00
FC0780F800
7E0781F800
7E0781F800
7F0783F800
3F0307F000
3FC00FF000
1FE01FF800
0FFFFFFC00
0FFFFFFE00
03FFFFFF00
01FFFFFF80
007FFFFFC0
001FE3FFE0
000001FFF0
000000FFF8
0000007FF8
0000003FFC
0000001FFC
0000000FF8
00000007F8
00000003F0
00000000C0
ENDCHAR
STARTCHAR 0028
ENCODING 40
SWIDTH 977 0
DWIDTH 38 0
BBX 38 39 0 -7
BITMAP
0002000000
003FF00000
00FFFC0000
03FFFF0000
07FFFF8000
0FFFFFC000
1FF07FE000
3FC00FE000
3F8007F000
7F0003F800
7E0001F800
7E0001F800
7C0000F800
FC7FF8FC00
FCFFFCFC00
FCFFFCFC00
FC7FF8FC00
FC0000F800
7E0001F800
7E0001F800
7F0003F800
3F8007F000
3FC00FF000
1FF03FF800
0FFFFFFC00
07FFFFFE00
03FFFFFF00
01FFFFFF80
007FFFFFC0
000FC3FFE0
000001FFF0
000000FFF8
0000007FFC
0000003FFC
0000001FFC
0000000FFC
00000007F8
00000003F0
0000000040
ENDCHAR
STARTCHAR 0029
ENCODING 41
SWIDTH 977 0
DWIDTH 38 0
BBX 38 28 0 -2
BITMAP
7FFFFFFFF8
FFFFFFFFFC
F80000007C
FC000000FC
FE000001EC
EF000003CC
E78000078C
E3C0000F0C
E1E0001E0C
E0F0003C0C
E07800780C
E03C00F00C
E01E01E00C
E00F03C00C
E00F87E00C
E01FCFF00C
E039FE780C
E070FC3C0C
E0E0101E0C
E1C0000F0C
E38000078C
E70000038C
EE000001CC
FC000000EC
F80000007C
FFFFFFFFFC
7FFFFFFFFC
7FFFFFFFF8
ENDCHAR
STARTCHAR 002A
ENCODING 42
SWIDTH 977 0
DWIDTH 38 0
BBX 33 40 3 -8
BITMAP
0003C00000
0007C00000
0007C00000
0007C00000
0007C00000
0007C00000
0007C00000
0007C00000
0007C00000
0007C00000
03C7C3C000
03F7CFC000
03FFFFC000
01FFFF8000
00FFFF0000
007FFE0000
7FBFFDFE00
3FDFFBFC00
DFEFF7F980
EFF7EFF380
F7FBDFE780
FBFD7FCF80
FDFFFF9F80
FEFFFF3F80
FF7FFE7F80
FFBFFDFF80
FFDFFBFF80
FFEFF3FF80
FFC7E3FF80
FFB3CDFF80
FF799EFF80
FEFFFF7F80
FDFFFFBF80
FBFFFFDF80
F7FFFFEF80
EFFFFFF780
DFFFFFFB80
BFFFFFFD00
7FFFFFFE00
7FFFFFFE00
ENDCHAR
STARTCHAR 002B
ENCODING 43
SWIDTH 977 0
DWIDTH 38 0
BBX 38 37 0 -6
BITMAP
FFFFFFFFFC
FFFFFFFFFC
FFFFFFFFFC
FFFFFFFFFC
FFFFFFFFFC
F807FF803C
F80FFFC03C
F81FFFE07C
F80FFFC07C
F807FF807C
F803FF007C
F907FF827C
FB8FFFC77C
FFDFFFEFFC
FFFFFFFFFC
FFFFFFFFFC
FFFFFFFFFC
FFFFFFFFFC
FFFFFFFFFC
FFFFFFFFFC
FFFFFFFFFC
FFFFFFFFFC
FFFFFFFFFC
FFDFFFEFFC
FB8FFFC77C
F907FF827C
F803FF007C
F807FF807C
F80FFFC07C
F81FFFE07C
F80FFFC07C
F807FF803C
FFFFFFFFFC
FFFFFFFFFC
FFFFFFFFFC
FFFFFFFFFC
FFFFFFFFFC
ENDCHAR
STARTCHAR 002C
ENCODING 44
SWIDTH 977 0
DWIDTH 38 0
BBX 38 37 0 -6
BITMAP
0000000F00
000003FF80
00000FFFC0
00001FFFE0
00003FFFF0
00007FFDF8
0000FFF8FC
0001FFF07C
0003FFF8F8
0007FFFDF8
000FFFFFF8
001FFFFFF8
003FFFFFF8
007FFFFFF8
00FFFFFFF0
01FFFFFFF0
03E7FFFFF0
07E3FFFFE0
0FF1FFFFC0
1F38FFFF80
3F1C7FFF00
7F8E3FFE00
FFC71FFC00
7FE38FF800
3FF1C7F000
1FF8E3E000
0FFC77C000
07FE3F8000
03FF1F0000
01FFBE0000
00FFFC0000
007FF80000
003FF00000
001FE00000
000FC00000
0007800000
0003000000
ENDCHAR
STARTCHAR 002D
ENCODING 45
SWIDTH 977 0
DWIDTH 38 0
BBX 38 37 0 -6
BITMAP
0003FF0000
001FFFE000
007F03F800
00F8007C00
01E0001E00
0380000700
0700000380
0F800041C0
1CC000C0E0
186001C060
383003C070
301807C030
700E0FC038
60001FC018
600FFFC018
600FFFC01C
E00FFFC01C
E00FFFC01C
E00FFFC01C
E00FFFC01C
E00FFFC01C
E00FFFC01C
600FFFC018
60001FC018
70000FC038
300007C030
380003D070
180001D870
1C0000CCE0
0E0000C7C0
07000003C0
0780000780
03C0000F00
00F0003C00
007E01F800
001FFFE000
0007FF8000
ENDCHAR
STARTCHAR 002E
ENCODING 46
SWIDTH 977 0
DWIDTH 38 0
BBX 32 40 3 -8
BITMAP
3FFFFFFE
30000006
30000006
30000006
30000006
30000006
30000006
30000006
30000006
30000006
30000006
30000006
30000006
30000006
30000006
30000006
30000006
30000006
30000006
3FFFFFFE
00000000
00000000
1FFFFFFE
3FFFFFFE
3FFFF81E
3FFFF81E
3FFFFFFE
3FFFFFFE
3FFFFFFE
1FFFFFFE
0000C000
0000C000
0000C000
0000C000
0000C000
003FFE00
003FFE00
FFFFFFFF
FFFFFFFF
003FFC00
ENDCHAR
STARTCHAR 002F
ENCODING 47
SWIDTH 977 0
DWIDTH 38 0
BBX 38 39 0 -7
BITMAP
0000780000
0C01FE00C0
0E03FF01C0
0607FF8180
0707FF8380
070FFFC380
E30FFFC31C
638FFFC718
638FFFC718
738FFFC738
73CFFFCF38
71CFFFCE38
31CFFFCE38
39CFFFCE70
39CFFFCE70
39CFFFCE70
39CFFFCE70
39CFFFCE70
39CFFFCE70
31CFFFCE30
71CFFFCE38
71CFFFCE38
738FFFC738
738FFFC738
638FFFC718
E38FFFC71C
C707FF838C
0703FF0380
0601FE0180
0E00FE01C0
0C00FE00C0
0400FE0040
0000FE0000
0000FE0000
0000FE0000
0000FE0000
0000FE0000
0000FC0000
0000FC0000
ENDCHAR
STARTCHAR 0030
ENCODING 48
SWIDTH 977 0
DWIDTH 38 0
BBX 38 37 0 -6
BITMAP
0003FF0000
001FFFE000
007FFFF800
00FFFFFC00
01FFFFFE00
03FFFFFF00
07EFFFDF80
0FC7FF8FC0
1F87FF87E0
1F03FF03E0
3E03FF01F0
3C01FE00F0
7C01FE00F8
7C00FC00F8
7800FC0078
7801FE007C
F80387007C
F80307007C
FFFF03FFFC
FFFF03FFFC
FFFF87FFFC
FFFFFFFFFC
7FFFFFFFF8
7FFF33FFF8
7FFF03FFF8
3FFE01FFF8
3FFC01FFF0
3FFC00FFF0
1FF8007FE0
0FF8007FC0
0FF0003FC0
07F0007F80
03FE01FF00
00FFFFFE00
007FFFF800
001FFFE000
0007FF8000
ENDCHAR
STARTCHAR 0031
ENCODING 49
SWIDTH 977 0
DWIDTH 38 0
BBX 36 40 1 -8
BITMAP
0003FC0000
0003FC0000
0003FC0000
0003FC0000
0013FC8000
0073FC6000
01F3FC7800
03F3FC7C00
07F3FC7E00
0FF3FC7F00
1FE3FC7F80
1FC3FC3F80
3F83FC1FC0
3F03FC0FC0
7E03FC07E0
7E03FC07E0
FC03FC03F0
FC03FC03F0
F803FC03F0
F803FC01F0
F803FC01F0
F803FC01F0
F8000001F0
F8000001F0
FC000003F0
FC000003F0
FC000003F0
7E000007E0
7E000007E0
3F00000FC0
3F80001FC0
1FC0003F80
0FF000FF00
0FFC03FF00
07FFFFFE00
03FFFFFC00
00FFFFF000
007FFFE000
000FFF0000
0000F80000
ENDCHAR
STARTCHAR 0032
ENCODING 50
SWIDTH 977 0
DWIDTH 38 0
BBX 36 40 1 -8
BITMAP
0000F00000
0001F80000
0001F80000
0001F80000
0001F80000
0001F80000
0001F80000
0001F80000
3801F001C0
7E00F007E0
FF00F00FF0
FF80F01FF0
FFC0E03FE0
7FE0607FE0
1FF060FF80
07F861FE00
01FCF7F000
000FFF0000
0003FC0000
0001FC0000
0003FC0000
000FFF0000
007FFFE000
03FC63FE00
1FF861FF80
3FF060FFE0
7FC0F07FF0
FF80F03FF0
FF00F00FF0
7E00F007F0
7C01F803E0
0001F80000
0001F80000
0001F80000
0001F80000
0001F80000
0001F80000
0001F80000
0000F00000
0000600000
ENDCHAR
STARTCHAR 0033
ENCODING 51
SWIDTH 977 0
DWIDTH 38 0
BBX 38 35 0 -5
BITMAP
0000100000
0000300000
0000300000
0000780000
0000780000
0000FC0000
0000FC0000
0001FE0000
0001FE0000
0003FF0000
0003FF0000
0007FF8000
03FFFFFF00
FFFFFFFFFC
7FFFFFFFF8
3FFFFFFFF0
0FFFFFFFE0
07FFFFFF80
03FFFFFF00
01FFFFFE00
00FFFFFC00
007FFFF800
003FFFF000
007FFFF800
007FFFF800
007FFFF800
007FFFF800
007FFFF800
007FFFF800
00FFFFFC00
00FF87FC00
00FE01FC00
00F8007C00
00E0001C00
0180000600
ENDCHAR
STARTCHAR 0034
ENCODING 52
SWIDTH 977 0
DWIDTH 38 0
BBX 38 27 0 -1
BITMAP
3FFFFFFFF0
3FFFFFFFF0
5FFFFFFFE8
EFFFFFFFDC
F7FFFFFFBC
FBFFFFFF7C
FDFFFFFEFC
FEFFFFFDFC
FF7FFFFBFC
FFBFFFF7FC
FFDFFFEFFC
FFEFFFDFFC
FFF7FFBFFC
FFFBFF7FFC
FFF1FE3FFC
FFE6FDDFFC
FFCF3BEFFC
FF9F87F7FC
FF3FFFFBFC
FE7FFFFDFC
FCFFFFFEFC
F9FFFFFF7C
F3FFFFFFFC
F7FFFFFFFC
EFFFFFFFFC
1FFFFFFFF0
3FFFFFFFF0
ENDCHAR
STARTCHAR 0035
ENCODING 53
SWIDTH 977 0
DWIDTH 38 0
BBX 38 29 0 -3
BITMAP
0000307C00
0000FC7C00
0001CE7C00
0007237C00
000E79FC00
0018FC7C00
0073FF3C00
00C7FF8C00
039FFFC700
063FFFF380
1CFFFFF8E0
39FFFFFE70
E3FFFFFF18
43FFFFFF0C
03FFFFFF00
03FFFFFF00
03FF03FF00
03FF03FF00
03FF03FF00
03FF03FF00
03FF03FF00
03FF03FF00
03FF03FF00
03FF03FF00
03FF03FF00
03FF03FF00
03FF03FF00
03FF03FF00
03FF03FE00
ENDCHAR
STARTCHAR 0036
ENCODING 54
SWIDTH 977 0
DWIDTH 38 0
BBX 38 39 0 -7
BITMAP
03C0001C00
07E0003E00
07E0007F00
07E0007F00
07E0003F00
03C0003E00
0000000000
1FF800FF80
3FFE01FFC0
7FFE03FFE0
FFFF03FFE0
FFFF03FFE0
EFF7077F70
EFF7077F70
EFF707FFF0
EFF706FFB0
EFF70EFFB8
EFF70EFFF8
EFF70FFFF8
EFF71DFFDC
EFF71DFFDC
EFF703FFE0
4FF203FFE0
0FF003FFE0
0FF003FFF0
0FF007FFF0
0FF007FFF0
0FF0007700
0FF0007700
0FF0007700
0FF0007700
0FF0007700
0FF0007700
0FF0007700
0FF0007700
0FF0007700
0FF0007700
0FF0007700
0E70007700
ENDCHAR
STARTCHAR 0037
ENCODING 55
SWIDTH 977 0
DWIDTH 38 0
BBX 38 29 0 -2
BITMAP
000F800000
007FF80000
01FCFC0000
03F03F0000
0FE03F8000
0FE01FC000
1FE01FE000
3FE01FE000
3FE03FF000
7FF07FF000
78FCF8F000
703FF03800
E03FE03800
E01FC01800
E01FC01800
E01FE01800
E03FE03800
707FF07800
7FF8FFF000
7FF03FF000
3FE03FF000
3FE01FE000
1FE01FE000
1FE01FC000
0FE03FE01C
07F07F70FC
01FFFE7FF0
00FFF83FC0
001FC00000
ENDCHAR
STARTCHAR 0038
ENCODING 56
SWIDTH 977 0
DWIDTH 38 0
BBX 30 40 4 -8
BITMAP
7FFFFFF8
FFFFFFFC
FFFFFFFC
F000001C
E000001C
E000001C
E000001C
E000001C
E000001C
E000001C
F800007C
FFFFFFFC
FFFFFFFC
FFFFFFFC
F078383C
F078383C
F078383C
F078383C
F0F87C3C
FFFFFFFC
FFFFFFFC
FFFFFFFC
F078383C
F078383C
F078383C
F078383C
F078383C
FFFFFFFC
FFFFFFFC
FFFFFFFC
FFFFFFFC
F078383C
F078383C
F078383C
F078383C
F0787C3C
FFFFFFFC
FFFFFFFC
7FFFFFF8
3FFFFFF0
ENDCHAR
STARTCHAR 0039
ENCODING 57
SWIDTH 977 0
DWIDTH 38 0
BBX 38 36 0 -5
BITMAP
E000000000
F800000000
7C00000000
1C00000000
0E00000004
0F1FFFFFF8
071FFFFFF8
071FFFFFF0
038FFFFFF0
038FFFFFF0
01CFFFFFE0
01CFFFFFE0
01CFFFFFC0
01CFFFFFC0
00C7FFFF80
00E7FFFF80
00E7FFFF00
00E7FFFF00
00E0000000
0060000000
0060000000
0070000000
0070000000
007FFFFFE0
007FFFFFE0
003FFFFFC0
0000000000
0000000000
007C000780
00FE000FC0
00FE001FE0
00FF001FE0
00FE001FE0
00FE001FC0
007C000FC0
0018000300
ENDCHAR
STARTCHAR 003A
ENCODING 58
SWIDTH 977 0
DWIDTH 38 0
BBX 38 37 0 -7
BITMAP
000001FC00
000007FF00
00000FFFC0
00001FFFE0
00003FFFF0
00007FF0F0
00007FE078
0000FFE078
0000FFE078
0000FFF0FC
0000FFFFFC
0000FFFFFC
0000FFFFFC
0000FFFFF8
00007FFFF8
00027FFFF8
00033FFFF0
00073FFFE0
000F9FFFC0
001FCFFF80
003FE3FF00
007FF07000
00FFFE0000
01FFE00000
03FFE00000
07FFE00000
0FFF000000
1FFF000000
3FFF000000
7FE0000000
7FE0000000
FFE0000000
FFE0000000
FF00000000
7F00000000
7F00000000
1F00000000
ENDCHAR
STARTCHAR 003B
ENCODING 59
SWIDTH 977 0
DWIDTH 38 0
BBX 38 38 0 -7
BITMAP
0000300000
0000300000
0000300000
0000300000
0000300000
0000300000
0000300000
0000300000
0000300000
0000300000
0000300000
0000300000
0000300000
0000300000
0000300000
0000300000
0000300000
FFFFFFFFFC
FFFFFFFFFC
FFFFFFFFFC
0000300000
0000300000
0000300000
0000300000
0000300000
0000300000
0000300000
0000300000
0000300000
0000300000
0000300000
0000300000
0000300000
0000300000
0000300000
0000300000
0000300000
0000300000
ENDCHAR
STARTCHAR 003C
ENCODING 60
SWIDTH 977 0
DWIDTH 38 0
BBX 38 31 0 -3
BITMAP
0000300000
0000300000
0000780000
00007C0000
0000FC0000
0001FE0000
0001FE0000
0003CF0000
0003C78000
0007878000
000F03C000
000F03C000
001E01E000
001E00F000
003C00F000
0078007800
0078007800
00F0003C00
00F0001E00
01E0001E00
03C0000F00
03C0000F00
0780000780
0780000380
0F000003C0
1E000001E0
1E000001E0
3C000000F0
3C00000070
7800000078
F00000003C
ENDCHAR
STARTCHAR 003D
ENCODING 61
SWIDTH 977 0
DWIDTH 38 0
BBX 38 37 0 -6
BITMAP
0003FF0000
001F8FE000
0078007800
00E0001C00
0180000600
0700000380
0600000180
0C7FFC00C0
183F1F0060
101E078060
301E03C030
201E03C010
601E03E018
601E03E018
401E03C008
C01E03C008
C01E07800C
C01E1F000C
C01FFC000C
C01E78000C
C01E3C000C
C01E1E000C
401E1E0008
601E0F0018
601E078018
201E07C010
301E03C030
301E01E020
183F00F060
0CFFC0FCC0
0E000001C0
0700000380
0380000700
00E0001C00
0078007800
001F87E000
0007FF0000
ENDCHAR
STARTCHAR 003E
ENCODING 62
SWIDTH 977 0
DWIDTH 38 0
BBX 38 37 0 -6
BITMAP
0003FF0000
001FFFE000
0078007800
00E0001C00
0180000600
0300000380
0600000180
0C01FF90C0
180701F060
101E007060
303C003830
2078001810
6070001818
60F0000818
40F0000008
C1E0000008
C1E000000C
C1E000000C
C1E000000C
C1E000000C
C1E000000C
C1F000000C
41F0000008
60F0000018
60F8000018
2078000810
303C001030
301E006020
180F81C060
0C03FF00C0
0E000001C0
0700000380
0380000700
00E0001C00
0078007800
001F87E000
0007FF0000
ENDCHAR
STARTCHAR 003F
ENCODING 63
SWIDTH 977 0
DWIDTH 38 0
BBX 38 37 0 -6
BITMAP
0003FF0000
001FFFE000
003FFFF800
00FFFFFC00
01FF03FE00
03F8007F00
07E0001F80
0FC0000FC0
1F800007E0
1F000003E0
3E000001F0
3C000000F0
7C000000F8
7800000078
7800000078
7800000078
F80000007C
F80000003C
F80000003C
F80000003C
F80000007C
780000007C
7800000078
7800000078
7C000000F8
3C000000F0
3E000001F0
3E000001F0
1F000003E0
0F800007C0
07E0001F80
07F0003F80
03FE00FF00
00FFFFFC00
007FFFF800
001FFFE000
0007FF8000
ENDCHAR
STARTCHAR 0040
ENCODING 64
SWIDTH 977 0
DWIDTH 38 0
BBX 38 37 0 -6
BITMAP
0000200000
0000300000
0000300000
0000780000
0000780000
0000FC0000
0000FC0000
0001FE0000
0001FE0000
0003FF0000
0003FF0000
0007FF8000
0007FF8000
000FFFC000
000FFFC000
001FFFE000
001FFFE000
003FFFF000
003FFFF000
007FFFF800
007FFFF800
00FFFFFC00
00FFFFFC00
01FFFFFE00
01FFFFFE00
03FFFFFF00
03FFFFFF00
07FFFFFF80
07FFFFFF80
0FFFFFFFC0
0FFFFFFFC0
1FFFFFFFE0
1FFFFFFFE0
3FFFFFFFF0
3FFFFFFFF0
7FFFFFFFF8
FFFFFFFFFC
ENDCHAR
STARTCHAR 0041
ENCODING 65
SWIDTH 977 0
DWIDTH 38 0
BBX 38 36 0 -6
BITMAP
C002000000
E003000000
F003C00000
FC03E00000
FE03F00000
FF03FC0000
FFC3FE0000
FFE3FF0000
FFF3FFC000
FFFDFFE000
FFFE7FF000
FFFF3FFC00
FFFFDFFE00
FFFFE7FF00
FFFFF3FFC0
FFFFFDFFE0
FFFFFE7FF0
FFFFFF3FFC
FFFFFE7FF0
FFFFFCFFE0
FFFFF3FFC0
FFFFE7FF00
FFFFCFFE00
FFFF3FFC00
FFFE7FF000
FFFCFFE000
FFF3FFC000
FFE3FF0000
FFC3FE0000
FF03FC0000
FE03F80000
FC03E00000
F003C00000
E003800000
C002000000
8004000000
ENDCHAR
STARTCHAR 0042
ENCODING 66
SWIDTH 977 0
DWIDTH 38 0
BBX 32 40 3 -8
BITMAP
800000FF
E00000FF
F00000FF
FC0000FF
FF0000FF
FF8000FF
FFE000FF
FFF800FF
FFFC00FF
FFFF00FF
FFFF80FF
FFFFE0FF
FFFFF8FF
FFFFFCFF
FFFFFFFF
FFFFFFFF
FFFFFFFF
FFFFFFFF
FFFFFFFF
FFFFFFFF
FFFFFFFF
FFFFFFFF
FFFFFFFF
FFFFFFFF
FFFFFFFF
FFFFFEFF
FFFFF8FF
FFFFE0FF
FFFFC0FF
FFFF00FF
FFFE00FF
FFF800FF
FFE000FF
FFC000FF
FF0000FF
FC0000FF
F80000FF
E00000FF
800000FF
800000FF
ENDCHAR
STARTCHAR 0043
ENCODING 67
SWIDTH 977 0
DWIDTH 38 0
BBX 28 40 5 -8
BITMAP
FFF0FFF0
FFF0FFF0
FFF0FFF0
FFF0FFF0
FFF0FFF0
FFF0FFF0
FFF0FFF0
FFF0FFF0
FFF0FFF0
FFF0FFF0
FFF0FFF0
FFF0FFF0
FFF0FFF0
FFF0FFF0
FFF0FFF0
FFF0FFF0
FFF0FFF0
FFF0FFF0
FFF0FFF0
FFF0FFF0
FFF0FFF0
FFF0FFF0
FFF0FFF0
FFF0FFF0
FFF0FFF0
FFF0FFF0
FFF0FFF0
FFF0FFF0
FFF0FFF0
FFF0FFF0
FFF0FFF0
FFF0FFF0
FFF0FFF0
FFF0FFF0
FFF0FFF0
FFF0FFF0
FFF0FFF0
FFF0FFF0
FFF0FFF0
FFF0FFF0
ENDCHAR
STARTCHAR 0044
ENCODING 68
SWIDTH 977 0
DWIDTH 38 0
BBX 32 40 3 -8
BITMAP
80000000
E0000000
F0000000
FC000000
FF000000
FF800000
FFE00000
FFF00000
FFFC0000
FFFF0000
FFFF8000
FFFFE000
FFFFF800
FFFFFC00
FFFFFF00
FFFFFFC0
FFFFFFE0
FFFFFFF8
FFFFFFFC
FFFFFFFF
FFFFFFFE
FFFFFFF8
FFFFFFF0
FFFFFFC0
FFFFFF00
FFFFFE00
FFFFF800
FFFFF000
FFFFC000
FFFF0000
FFFE0000
FFF80000
FFE00000
FFC00000
FF000000
FC000000
F8000000
E0000000
80000000
80000000
ENDCHAR
STARTCHAR 0045
ENCODING 69
SWIDTH 977 0
DWIDTH 38 0
BBX 38 37 0 -6
BITMAP
0003FF0000
000FFFE000
003FFFF800
00FFFFFC00
01FFFFFE00
03FFFFFF00
07FFFFFF80
0FFFFFFFC0
1FFFFFFFE0
1FFFFFFFE0
3FFFC7FFF0
3FFE01FFF0
7FFC007FF8
7FF8003FF8
7FF0003FF8
7FE0001FF8
FFE0001FFC
FFE0001FFC
FFE0001FFC
FFE0001FFC
FFE0001FFC
7FE0001FFC
7FF0003FF8
7FF0003FF8
7FF8007FF8
3FFC00FFF0
3FFF87FFF0
1FFFFFFFE0
1FFFFFFFE0
0FFFFFFFC0
07FFFFFF80
03FFFFFF80
01FFFFFF00
00FFFFFC00
007FFFF800
001FFFE000
0003FF8000
ENDCHAR
STARTCHAR 0046
ENCODING 70
SWIDTH 977 0
DWIDTH 38 0
BBX 37 37 1 -6
BITMAP
FFFFFFFFF8
FFFFFFFFF8
FFFFFFFFF8
FFFFFFFFF8
FFFFFFFFF8
FFFFFFFFF8
FFFFFFFFF8
FFFFFFFFF8
FFFFFFFFF8
FFFFFFFFF8
FFFFFFFFF8
FFFFFFFFF8
FFFFFFFFF8
FFFFFFFFF8
FFFFFFFFF8
FFFFFFFFF8
FFFFFFFFF8
FFFFFFFFF8
FFFFFFFFF8
FFFFFFFFF8
FFFFFFFFF8
FFFFFFFFF8
FFFFFFFFF8
FFFFFFFFF8
FFFFFFFFF8
FFFFFFFFF8
FFFFFFFFF8
FFFFFFFFF8
FFFFFFFFF8
FFFFFFFFF8
FFFFFFFFF8
FFFFFFFFF8
FFFFFFFFF8
FFFFFFFFF8
FFFFFFFFF8
FFFFFFFFF8
FFFFFFFFF8
ENDCHAR
STARTCHAR 0047
ENCODING 71
SWIDTH 977 0
DWIDTH 38 0
BBX 32 40 3 -8
BITMAP
FF000001
FF000007
FF00000F
FF00003F
FF0000FF
FF0001FF
FF0007FF
FF000FFF
FF003FFF
FF00FFFF
FF01FFFF
FF07FFFF
FF1FFFFF
FF3FFFFF
FFFFFFFF
FFFFFFFF
FFFFFFFF
FFFFFFFF
FFFFFFFF
FFFFFFFF
FFFFFFFF
FFFFFFFF
FFFFFFFF
FFFFFFFF
FFFFFFFF
FF7FFFFF
FF1FFFFF
FF07FFFF
FF03FFFF
FF00FFFF
FF007FFF
FF001FFF
FF0007FF
FF0003FF
FF0000FF
FF00003F
FF00001F
FF000007
FF000001
FF000001
ENDCHAR
STARTCHAR 0048
ENCODING 72
SWIDTH 977 0
DWIDTH 38 0
BBX 38 36 0 -6
BITMAP
000001000C
000003001C
00000F003C
00001F00FC
00003F01FC
0000FF03FC
0001FF0FFC
0003FF1FFC
000FFF3FFC
001FFEFFFC
003FF9FFFC
00FFF3FFFC
01FFEFFFFC
03FF9FFFFC
0FFF3FFFFC
1FFE7FFFFC
3FF9FFFFFC
FFF3FFFFFC
3FF9FFFFFC
1FFCFFFFFC
0FFF3FFFFC
03FF9FFFFC
01FFCFFFFC
00FFF3FFFC
003FF9FFFC
001FFCFFFC
000FFF3FFC
0003FF1FFC
0001FF0FFC
0000FF03FC
00003F01FC
00001F00FC
00000F003C
000007001C
000001000C
0000008004
ENDCHAR
STARTCHAR 0049
ENCODING 73
SWIDTH 977 0
DWIDTH 38 0
BBX 38 37 0 -6
BITMAP
F100000000
F1C0000000
F1E0000000
F1F0000000
F1F0000000
F1F1000000
F1F0C00000
F1F0F00000
F1F0F80000
F1F0FE0000
F1F0FF0000
F1F0FFC000
F1F0FFF000
F1F0FFF800
F1F0FFFE00
F1F0FFFF80
F1F0FFFFC0
F1F0FFFFF0
F1F0FFFFFC
F1F0FFFFF0
F1F0FFFFE0
F1F0FFFF80
F1F0FFFE00
F1F0FFFC00
F1F0FFF000
F1F0FFC000
F1F0FF8000
F1F0FE0000
F1F0FC0000
F1F0F00000
F1F0C00000
F1F0800000
F1F0000000
F1F0000000
F1F0000000
F1C0000000
F100000000
ENDCHAR
STARTCHAR 004A
ENCODING 74
SWIDTH 977 0
DWIDTH 38 0
BBX 38 37 0 -6
BITMAP
0000100000
0000300000
0000780000
00007C0000
0000FC0000
0001FE0000
0003FF0000
0003FF8000
0007FF8000
000FFFC000
001FFFE000
001FFFF000
003FFFF000
007FFFF800
00FFFFFC00
00FFFFFE00
01FFFFFE00
03FFFFFF00
07FFFFFF80
07FFFFFFC0
0FFFFFFFC0
1FFFFFFFE0
3FFFFFFFF0
3FFFFFFFF8
FFFFFFFFFC
0000000000
0000000000
0000000000
FFFFFFFFFC
FFFFFFFFFC
FFFFFFFFFC
FFFFFFFFFC
FFFFFFFFFC
FFFFFFFFFC
FFFFFFFFFC
FFFFFFFFFC
FFFFFFFFFC
ENDCHAR
STARTCHAR 004B
ENCODING 75
SWIDTH 977 0
DWIDTH 38 0
BBX 38 38 0 -6
BITMAP
00000003C0
00000007C0
0000000FC0
0000000F80
0000001F80
0000001F00
0000003F00
0000003E00
0000007E00
0000007C00
000000FC00
1FFFFFF800
1FFFFFF000
3FFFFFF000
7FFFFFF800
FFFFFFF800
0FFFFFFC00
007FFFFC00
0003FFFE00
00003FFE00
00003FFF00
00007FFF80
00007CFF80
0000FC7FC0
0000F83FC0
0001F03FE0
0001F01FE0
0003E00FF0
007FC007F8
00FFC003F8
01FFC001FC
00FFC000F8
0007E00078
0003E00070
0001E00020
0000E00000
0000400000
0000400000
ENDCHAR
STARTCHAR 004C
ENCODING 76
SWIDTH 977 0
DWIDTH 38 0
BBX 32 40 3 -8
BITMAP
00000040
00000040
000000E0
000000E0
007FF9F0
01FFFFF0
03FFFFF0
0FFFFFF8
1FFFFFF8
1F01FFFC
38003FFC
60001FFC
80003FFE
00003FFE
00007FFF
0000FFFF
0000FF80
00018000
00000000
00000000
00000000
00000000
003F8000
3FFF0000
FFFE0000
7FFE0000
7FFC0001
3FF80002
3FFC000C
3FFF007C
1FFFFFF8
1FFFFFF0
0FFFFFE0
0FFFFF80
0FBFFE00
07000000
07000000
02000000
02000000
02000000
ENDCHAR
STARTCHAR 004D
ENCODING 77
SWIDTH 977 0
DWIDTH 38 0
BBX 38 31 0 -3
BITMAP
001FFC0000
007FFF0000
01FFFF8000
03FFFFE000
07FC3FF000
0FE007F800
1FC001F800
3F0000FC00
3F00007E00
7E00003E00
7C00003E00
7C00001F00
780007FFFC
F80003FFF8
F80001FFF0
F80000FFE0
F800007FC0
F800003F80
7800003F80
7C00001F00
7C00000E00
7E00000400
3E00000000
3F00000000
1FC0010000
0FE0070000
07FC3F0000
03FFFF0000
01FFFF8000
00FFFF0000
001FFC0000
ENDCHAR
STARTCHAR 004E
ENCODING 78
SWIDTH 977 0
DWIDTH 38 0
BBX 38 27 0 -1
BITMAP
00000000E0
00000001F0
00000003F8
00000007F8
0000000FFC
0000001FF8
0000003FF8
0000007FF0
1C0000FFE0
3E0001FFC0
7F0003FF80
FF8007FF00
FFC00FFE00
7FE01FFC00
3FF03FF800
1FF87FF000
0FFCFFE000
07FFFFC000
03FFFF8000
01FFFF0000
00FFFE0000
007FFC0000
003FF80000
001FF00000
000FE00000
0007C00000
0003800000
ENDCHAR
STARTCHAR 004F
ENCODING 79
SWIDTH 977 0
DWIDTH 38 0
BBX 38 37 0 -6
BITMAP
3FC0000000
7FFC000000
FFFF800000
FFFFE00000
7FFFF80000
7FFFFC0000
3FFFFF0000
007FFF8000
0007FFC000
0001FFE000
00007FF000
3F801FF800
7FF00FFC00
FFFC07FE00
FFFF01FF00
7FFFC0FF00
7FFFE0FF80
3FFFF07FC0
00FFF83FC0
001FFC1FE0
0007FC1FE0
0003FE0FE0
0001FF0FF0
0000FF07F0
00007F87F0
0FC07F87F8
3FE03FC3F8
7FF03FC3F8
7FF01FC3F8
7FF81FC3F8
FFF81FE3FC
FFF80FE1FC
7FF80FE1FC
7FF00FE1FC
7FF00FE1FC
3FE00FC1F8
0FC00780F0
ENDCHAR
STARTCHAR 0050
ENCODING 80
SWIDTH 977 0
DWIDTH 38 0
BBX 36 40 1 -8
BITMAP
0007FC0000
001FFF8000
003FFFC000
00FFFFF000
01FFFFF800
03FFFFFC00
03FC03FC00
07F801FE00
07F000FE00
0FE0007F00
0FC0003F00
0FC0003F00
0FC0003F00
0F80001F00
0F80001F00
0F80001F00
0F80001F00
0F80001F00
FFFFFFFFF0
FFFFFFFFF0
FFFFFFFFF0
FFFFFFFFF0
FFFFFFFFF0
FFFF0FFFF0
FFFE07FFF0
FFFE07FFF0
FFFF0FFFF0
FFFF0FFFF0
FFFF9FFFF0
FFFF0FFFF0
FFFF0FFFF0
FFFF0FFFF0
FFFF0FFFF0
FFFF0FFFF0
FFFFFFFFF0
FFFFFFFFF0
FFFFFFFFF0
FFFFFFFFF0
FFFFFFFFF0
FFFFFFFFF0
ENDCHAR
STARTCHAR 0051
ENCODING 81
SWIDTH 977 0
DWIDTH 38 0
BBX 38 37 0 -6
BITMAP
00FFFFFC00
00FFFFFC00
00FFFFFC00
00FFFFFC00
00FFFFFC00
00FFFFFC00
00FFFFFC00
00FFFFFC00
00FFFFFC00
00FFFFFC00
00FFFFFC00
00FFFFFC00
00FFFFFC00
00FFFFFC00
0000300000
0000100000
0000100000
0000100000
0000100000
00FFFFFE00
00FFFFFE00
0080000200
0080000200
0080000200
FFFF03FFFC
FFFF03FFFC
FFFF03FFFC
FFFF03FFFC
FFFF03FFFC
FFFF03FFFC
FFFF03FFFC
FFFF03FFFC
FFFF03FFFC
FFFF03FFFC
FFFF03FFFC
FFFF03FFFC
FFFF03FFFC
ENDCHAR
STARTCHAR 0052
ENCODING 82
SWIDTH 977 0
DWIDTH 38 0
BBX 38 23 0 1
BITMAP
0001000000
0003800000
0001E00000
0001F00000
007FF87C00
07FFFC7F80
0FFFFE7FC0
1FFFFE7FE0
3FFFFC7FF0
7F01F003F8
7C01E000F8
7C03C0007C
F80380007C
F80000007C
F80000007C
780000007C
7C000000F8
7E000001F8
3FFFFFFFF0
1FFFFFFFF0
1FFFFFFFE0
07FFFFFF80
01FFFFFE00
ENDCHAR
STARTCHAR 0053
ENCODING 83
SWIDTH 977 0
DWIDTH 38 0
BBX 38 31 0 -3
BITMAP
000000E000
000001F000
000003F800
000007FC00
00000FFE00
00001FFF00
FFFFBFFF80
FFFF7FFFC0
FFFEFFFFE0
FFFDFFFFF0
FFFBFFFFF8
FFFBF9FBF8
FE03E1F8F8
FCFD9DFB18
F9FE7DFBEC
F9FFFDFBFC
FBFFFDFBF8
FBFFFDFBF8
F3FFFDFBF8
F7FFFDFBF0
F7FFFDFBF0
E7FFFDFBF0
E7FFFDFBF0
EFFFFDFBE0
EFFFFDF3E0
CFFFFE07E0
DFFFFFFFC0
DFFFFFFFC0
5FFFFFFFC0
1FFFFFFFC0
1FFFFFFF80
ENDCHAR
STARTCHAR 0054
ENCODING 84
SWIDTH 977 0
DWIDTH 38 0
BBX 38 37 0 -6
BITMAP
0003FF0000
001FFFE000
007FFFF000
00FFFFFC00
01FFFFFE00
03FFFFFF00
07FC00FF80
0FF0003FC0
1FF0001FE0
1FF8000FE0
3FFC0007F0
3F7E0003F0
7E3F0001F8
7E1F8001F8
7C0FC001F8
FC07E000F8
FC03F000FC
FC01F800FC
FC00FC00FC
FC007E00FC
FC003F00FC
FC001F80F8
7C000FC1F8
7E0007E1F8
7E0003F1F8
3F0001FBF0
3F0000FFF0
3F80007FE0
1FC0003FE0
0FF0003FC0
07F800FF80
07FF07FF80
03FFFFFE00
00FFFFFC00
007FFFF800
001FFFE000
0007FF0000
ENDCHAR
STARTCHAR 0055
ENCODING 85
SWIDTH 977 0
DWIDTH 38 0
BBX 38 33 0 -4
BITMAP
0000100000
0000380000
0000780000
0000F80000
0001F80000
0003F80000
0007F80000
000FF80000
001FF80000
003FF80000
FFFFF80000
FFFFF80000
FFFFF80000
FFFFF80000
FFFFF8FFFC
FFFFF8FFFC
FFFFF8FFFC
FFFFF8FFFC
FFFFF8FFFC
FFFFF80000
FFFFF80000
FFFFF80000
FFFFF80000
003FF80000
001FF80000
000FF80000
0007F80000
0003F80000
0001F80000
0000F80000
0000780000
0000380000
0000100000
ENDCHAR
STARTCHAR 0056
ENCODING 86
SWIDTH 977 0
DWIDTH 38 0
BBX 38 35 0 -5
BITMAP
0000080000
0000180000
0000380000
0000780000
0000F80000
0001F80000
0003F80000
0007F80000
000FF80000
001FF80000
001FF80000
FFFFF80780
FFFFF80780
FFFFF80780
FFFFF80780
FFFFF8FFFC
FFFFF8FFFC
FFFFF8FFFC
FFFFF8FFFC
FFFFF8FFFC
FFFFF80780
FFFFF80780
FFFFF80780
FFFFF80780
003FF80780
001FF80000
000FF80000
0007F80000
0003F80000
0001F80000
0000F80000
0000780000
0000380000
0000180000
0000080000
ENDCHAR
STARTCHAR 0057
ENCODING 87
SWIDTH 977 0
DWIDTH 38 0
BBX 38 37 0 -6
BITMAP
0000000C00
07F8007F80
1FFE01FFE0
3FFF03FFF0
3FFF87FFF0
7FFFCFFFF8
7FFFDFFFF8
FFFFFFFFFC
FFFFFFFFFC
FFFFFFFFFC
7FFFFFFFFC
7FFFFFFFFC
7FFFFFFFF8
3FFFFFFFF8
3FFFFFFFF0
1FFFFFFFF0
0FFFFFFFE0
07FFFFFFC0
07FFFFFF80
03FFFFFF00
01FFFFFE00
00FFFFFC00
007FFFF800
001FFFF000
000FFFE000
0007FFC000
0007FF8000
0003FF8000
0001FF0000
0000FE0000
00007C0000
0000380000
0000380000
0000300000
0000100000
0000100000
0000100000
ENDCHAR
STARTCHAR 0058
ENCODING 88
SWIDTH 977 0
DWIDTH 38 0
BBX 32 40 3 -8
BITMAP
01E00000
01E00000
01E00000
01E00000
01E00000
01E00000
01E00000
01E00000
01E00000
01E00000
01E00000
01E3C000
01E3C000
01E3C780
01E3C78E
01E3C79F
71E3C79F
79F3CF9F
F9FFFFFF
F9FFFFFF
F9FFFFFF
F9FFFFFF
F9FFFFFF
F9FFFFFF
F9FFFFFF
FFFFFFFF
FFFFFFFF
7FFFFFFF
7FFFFFFF
7FFFFFFF
3FFFFFFF
1FFFFFFF
1FFFFFFF
0FFFFFFF
07FFFFFF
07FFFFFF
03FFFFFF
01FFFFFE
01FFFFFE
007FFFF8
ENDCHAR
STARTCHAR 0059
ENCODING 89
SWIDTH 977 0
DWIDTH 38 0
BBX 28 40 5 -8
BITMAP
000F0000
000F0000
000F0000
018F1800
03CF3C00
03CF3C00
03CF3C00
03CF3C00
03CF3C70
03CF3CF0
03CF3CF0
03CF3CF0
03CF3CF0
03CF3CF0
03CF3CF0
03CF3CF0
03CF3CF0
03CF3CF0
63CF3CF0
F3CF3CF0
F3FFFFF0
F3FFFFF0
F3FFFFF0
F3FFFFF0
F3FFFFF0
F3FFFFF0
FFFFFFF0
FFFFFFF0
FFFFFFF0
FFFFFFF0
7FFFFFF0
3FFFFFF0
3FFFFFF0
1FFFFFF0
1FFFFFF0
0FFFFFF0
07FFFFF0
07FFFFF0
03FFFFE0
00FFFF80
ENDCHAR
STARTCHAR 005A
ENCODING 90
SWIDTH 977 0
DWIDTH 38 0
BBX 38 39 0 -7
BITMAP
0000000100
0000000380
00000401C0
00000E01C0
00001E01E0
00003E00E0
00007E00E0
0000FE38F0
0001FE3870
0003FE3C70
0007FE1C78
000FFE1C78
001FFE1C78
FFFFFE1E38
FFFFFE1E3C
FFFFFE1E3C
FFFFFE0E3C
FFFFFE0E3C
FFFFFE0E3C
FFFFFE0E3C
FFFFFE0E3C
FFFFFE0E3C
FFFFFE0E3C
FFFFFE1E3C
FFFFFE1E38
FFFFFE1E38
FFFFFE1C78
7FFFFE1C78
000FFE1C78
0007FE3870
0007FE3870
0003FE38F0
0001FE30E0
0000FE00E0
00007E01E0
00003E01C0
00001E01C0
00000E0380
0000040000
ENDCHAR
STARTCHAR 005B
ENCODING 91
SWIDTH 977 0
DWIDTH 38 0
BBX 36 37 1 -6
BITMAP
8000000000
C000000000
F000000000
FC00000000
FF00000000
FFC0000000
FFF0000000
FFFC000000
FFFF000000
FFFFC00000
FFFFF00000
FFFFFC0000
FFFFFF0000
FFFFFFC000
FFFFFFF000
FFFFFFFC00
FFFFFFFF00
FFFFFFFFC0
FFFFFFFFF0
FFFFFFFFE0
FFFFFFFF80
FFFFFFFE00
FFFFFFF800
FFFFFFE000
FFFFFF8000
FFFFFE0000
FFFFF80000
FFFFE00000
FFFF800000
FFFE000000
FFF8000000
FFE0000000
FF80000000
FE00000000
F800000000
E000000000
8000000000
ENDCHAR
STARTCHAR 005C
ENCODING 92
SWIDTH 977 0
DWIDTH 38 0
BBX 38 37 0 -6
BITMAP
FFFFFFFFFC
7FFFFFFFF8
3FFFFFFFF0
3FFFFFFFF0
1FFFFFFFE0
1FFFFFFFE0
0FFFFFFFC0
0FFFFFFFC0
07FFFFFF80
07FFFFFF80
03FFFFFF00
03FFFFFF00
01FFFFFE00
01FFFFFE00
00FFFFFC00
00FFFFFC00
007FFFF800
007FFFF800
003FFFF000
003FFFF000
001FFFE000
001FFFE000
000FFFC000
000FFFC000
0007FF8000
0007FF8000
0003FF0000
0003FF0000
0001FE0000
0001FE0000
0000FC0000
0000FC0000
0000780000
0000780000
0000300000
0000300000
0000100000
ENDCHAR
STARTCHAR 005D
ENCODING 93
SWIDTH 977 0
DWIDTH 38 0
BBX 38 37 0 -6
BITMAP
0000000004
000000001C
000000007C
00000001FC
00000007FC
0000001FFC
0000007FFC
000001FFFC
000007FFFC
00001FFFFC
00007FFFFC
0001FFFFFC
0007FFFFFC
001FFFFFFC
007FFFFFFC
01FFFFFFFC
07FFFFFFFC
1FFFFFFFFC
FFFFFFFFFC
3FFFFFFFFC
0FFFFFFFFC
03FFFFFFFC
00FFFFFFFC
003FFFFFFC
000FFFFFFC
0003FFFFFC
0000FFFFFC
00003FFFFC
00000FFFFC
000003FFFC
000000FFFC
0000003FFC
0000000FFC
00000003FC
00000000FC
000000003C
000000000C
ENDCHAR
STARTCHAR 005E
ENCODING 94
SWIDTH 977 0
DWIDTH 38 0
BBX 38 13 0 6
BITMAP
0200000100
0600000080
0C000000C0
1C000000E0
3C00000070
7FFFFFFFF8
FFFFFFFFFC
7FFFFFFFF8
3800000070
1C000000E0
0C000000C0
0400000080
0200000100
ENDCHAR
STARTCHAR 005F
ENCODING 95
SWIDTH 977 0
DWIDTH 38 0
BBX 14 40 12 -8
BITMAP
0300
0780
0FC0
1FE0
3FF0
77B8
8784
0780
0780
0780
0780
0780
0780
0780
0780
0780
0780
0780
0780
0780
0780
0780
0780
0780
0780
0780
0780
0780
0780
0780
0780
0780
8784
6798
3FF0
1FE0
0FC0
0780
0300
0200
ENDCHAR
STARTCHAR 0060
ENCODING 96
SWIDTH 977 0
DWIDTH 38 0
BBX 14 40 12 -8
BITMAP
0780
0780
0780
0780
0780
0780
0780
0780
0780
0780
0780
0780
0780
0780
0780
0780
0780
0780
0780
0780
0780
0780
0780
0780
0780
0780
0780
0780
0780
0780
0780
0780
8784
6798
3FF0
1FE0
0FC0
0780
0300
0100
ENDCHAR
STARTCHAR 0061
ENCODING 97
SWIDTH 977 0
DWIDTH 38 0
BBX 38 22 0 2
BITMAP
0000000080
0000000100
0000000180
000FF80380
003FFF0380
00FFFFC780
01FFFFF7C0
03FFFFFFC0
07FFFFFFC0
07FFFFFFE0
0FFFFFFFE0
1FC07FFFE0
1E001FFFE0
380007FFF0
300003FFF0
400007FFF0
80000FFFF0
80001FFFF8
00001FFFF8
00003FFFF8
00007FFFF8
0000FFFFFC
ENDCHAR
STARTCHAR 0062
ENCODING 98
SWIDTH 977 0
DWIDTH 38 0
BBX 37 21 1 2
BITMAP
0400000000
0400000000
0E007F8000
0E03FFE000
0F0FFFF000
0F3FFFFC00
1FFFFFFE00
1FFFFFFE00
1FFFFFFF00
1FFFFFFF80
3FFFF81FC0
3FFFC003C0
3FFF0001E0
3FFE000060
7FFF000030
7FFF800010
7FFFC00008
FFFFC00000
FFFFE00000
FFFFF00000
FFFFF80000
ENDCHAR
STARTCHAR 0063
ENCODING 99
SWIDTH 977 0
DWIDTH 38 0
BBX 38 40 0 -8
BITMAP
0000FE0000
0001FF0000
0001FF0000
0001FF0000
0001FF0000
0001FF0000
0001FF0000
0001FF0000
0001FF0000
0001FF0000
0001FF0000
0001FF0000
0001FF0000
0001FF0000
0001FF0000
0001FF0000
0001FF0000
0001FF0000
3801FF0070
7E01FF01F8
7F81FF07F8
FFE1FF1FFC
7FF9FF7FF8
7FFFFFFFF8
3FFFFFFFF0
1FFFFFFFE0
0FFFFFFFC0
07FFFFFF80
03FFFFFF00
01FFFFFE00
00FFFFFC00
007FFFF800
003FFFF000
001FFFE000
000FFFC000
0007FF8000
0003FF0000
0001FE0000
0000FC0000
0000780000
ENDCHAR
STARTCHAR 0064
ENCODING 100
SWIDTH 977 0
DWIDTH 38 0
BBX 36 37 1 -5
BITMAP
0000000F00
0000001F80
0000003FC0
3800007FE0
7C0000FFF0
FE0001FFF0
FE0003FFF0
FF0007FFF0
FF000FFFE0
FF801FFFC0
FF803FFF80
FF807FFF00
FF80FFFE00
FFC1FFFC00
FFC3FFF800
FFC7FFF000
FFEFFFE000
FFFFFFC000
FFFFFF8000
FFFFFF0000
FFFFFE0000
FFFFFC0000
FFFFF80000
FFFFF00000
FFFFE00000
FFFFF00000
FFFFFC0000
FFFFFF8000
FFFFFFF000
FFFFFFFE00
FFFFFFFF00
FFFFFFFF80
FFFFFFFF80
FFFFFFFF80
FFFFFFFF80
7FFFFFFF00
3FFFFFFE00
ENDCHAR
STARTCHAR 0065
ENCODING 101
SWIDTH 977 0
DWIDTH 38 0
BBX 37 38 1 -6
BITMAP
0400000000
0F00000000
1F80000000
3FC0000000
7FE00001C0
FFF00003E0
FFF80007F0
FFFC0007F0
FFFE000FF8
7FFF000FF8
3FFF801FF8
1FFFC01FF8
0FFFE01FF8
07FFF03FF8
03FFF83FF8
01FFFC3FF8
00FFFE7FF8
007FFF7FF8
003FFFFFF8
001FFFFFF8
000FFFFFF8
0007FFFFF8
0003FFFFF8
0001FFFFF8
0000FFFFF8
00007FFFF8
0000FFFFF8
0003FFFFF8
001FFFFFF8
00FFFFFFF8
07FFFFFFF8
0FFFFFFFF8
1FFFFFFFF8
1FFFFFFFF8
1FFFFFFFF0
1FFFFFFFF0
0FFFFFFFE0
07FFFFFFC0
ENDCHAR
STARTCHAR 0066
ENCODING 102
SWIDTH 977 0
DWIDTH 38 0
BBX 38 35 0 -4
BITMAP
0001F00000
0003F80000
0007F80000
000FF80000
001FF00000
003FF00000
007FE00000
00FFE00000
01FFC00000
03FFC00000
07FF800000
0FFF800000
1FFF000000
3FFFFFFFF8
7FFFFFFFFC
7FFFFFFFFC
FFFFFFFFFC
FFFFFFFFFC
FFFFFFFFFC
7FFFFFFFFC
3FFFFFFFFC
1FFFFFFFF8
0FFF800000
07FF800000
03FFC00000
01FFC00000
00FFE00000
007FE00000
003FF00000
001FF00000
000FF00000
0007F80000
0003F80000
0001F00000
0000E00000
ENDCHAR
STARTCHAR 0067
ENCODING 103
SWIDTH 977 0
DWIDTH 38 0
BBX 38 35 0 -5
BITMAP
00001C0000
00003E0000
00007F0000
00007F8000
00003FC000
00003FE000
00003FF000
00001FF800
00001FFC00
00000FFE00
00000FFF00
000007FF80
000007FFC0
000003FFE0
7FFFFFFFF0
FFFFFFFFF8
FFFFFFFFFC
FFFFFFFFFC
FFFFFFFFFC
FFFFFFFFF8
FFFFFFFFF8
7FFFFFFFF0
000003FFE0
000007FFC0
000007FF80
00000FFF00
00000FFE00
00001FFC00
00001FF800
00003FF000
00003FE000
00007FC000
00007F8000
00007F0000
00003C0000
ENDCHAR
STARTCHAR 0068
ENCODING 104
SWIDTH 977 0
DWIDTH 38 0
BBX 38 40 0 -8
BITMAP
0000780000
0000FE0000
0001FF0000
0003FF8000
0007FFC000
000FFFE000
001FFFF000
003FFFF800
007FFFFC00
00FFFFFE00
01FFFFFF00
03FFFFFF80
07FFFFFFC0
0FFFFFFFE0
1FFFFFFFF0
3FFFFFFFF8
7FFFFFFFF8
7FF9FF7FFC
FFE1FF1FFC
7F81FF07F8
7E01FF01F8
1001FF0020
0001FF0000
0001FF0000
0001FF0000
0001FF0000
0001FF0000
0001FF0000
0001FF0000
0001FF0000
0001FF0000
0001FF0000
0001FF0000
0001FF0000
0001FF0000
0001FF0000
0001FF0000
0001FF0000
0001FE0000
00007C0000
ENDCHAR
STARTCHAR 0069
ENCODING 105
SWIDTH 977 0
DWIDTH 38 0
BBX 38 38 0 -7
BITMAP
3FFFFFFF80
7FFFFFFFC0
7FFFFFFFC0
FFFFFFFFC0
FFFFFFFFC0
FFFFFFFFC0
FFFFFFFF80
FFFFFFFE00
FFFFFFF800
FFFFFFC000
FFFFFE0000
FFFFF00000
FFFFF00000
FFFFF80000
FFFFFC0000
FFFFFE0000
FFFFFF0000
FFFFFF8000
FFFFFFC000
FFFFFFE000
FFF7FFF000
FFE3FFF800
FFE1FFFC00
FFE0FFFE00
FFC07FFF00
FFC03FFF80
FFC01FFFC0
FF800FFFE0
FF8007FFF0
FF8003FFF8
FF0001FFFC
7F0000FFFC
3E00007FF8
1C00003FF8
0000001FF0
0000000FE0
00000007C0
0000000100
ENDCHAR
STARTCHAR 006A
ENCODING 106
SWIDTH 977 0
DWIDTH 38 0
BBX 38 38 0 -7
BITMAP
07FFFFFFF0
0FFFFFFFF8
0FFFFFFFF8
0FFFFFFFFC
0FFFFFFFFC
0FFFFFFFFC
07FFFFFFFC
01FFFFFFFC
003FFFFFFC
000FFFFFFC
0001FFFFFC
00003FFFFC
00003FFFFC
00007FFFFC
0000FFFFFC
0001FFFFFC
0003FFFFFC
0007FFFFFC
000FFFFFFC
001FFFFFFC
003FFFBFFC
007FFF1FFC
00FFFE1FFC
01FFFC1FFC
03FFF80FFC
07FFF00FFC
0FFFE00FFC
1FFFC007FC
3FFF8007FC
7FFF0007FC
FFFE0003FC
FFFC0003F8
7FF80001F0
7FF0000060
3FE0000000
1FC0000000
0F80000000
0200000000
ENDCHAR
STARTCHAR 006B
ENCODING 107
SWIDTH 977 0
DWIDTH 38 0
BBX 38 33 0 -4
BITMAP
0000040000
0000040000
0000060000
0000070000
0000078000
000007C000
000007E000
000007F000
0001FFF800
001FFFFC00
00FFFFFE00
03FFFFFF00
07FFFFFF80
0FFFFFFFC0
1FFFFFFFE0
1FFFFFFFF0
3FFFFFFFFC
3FFFFFFFF8
7FF81FFFE0
7FC01FFFC0
7F001FFF00
7E001FFC00
7C003FF000
F8003FE000
F0003F8000
F0003E0000
E000380000
E000300000
C000400000
C000000000
8000000000
8000000000
8000000000
ENDCHAR
STARTCHAR 006C
ENCODING 108
SWIDTH 1080 0
DWIDTH 42 0
BBX 42 36 0 -6
BITMAP
000020000000
000060000000
0000E0000000
0001E0000000
0003E0000000
0007E0000000
000FE0000000
001FE0000000
003FFE000000
007FFFF80000
00FFFFFF0000
01FFFFFFC000
03FFFFFFF000
07FFFFFFF800
0FFFFFFFFC00
1FFFFFFFFC00
3FFFFFFFFE00
7FFFFFFFFE00
FFFFFFFFFF00
1FFFFC3FFF00
0FFFF803FF80
03FFF800FF80
00FFF8007F80
003FFC001F80
001FFC000F80
0007FC000FC0
0001FC0007C0
00007C0003C0
00003C0003C0
00000E0001C0
0000020001C0
0000000000C0
000000000080
000000000080
000000000040
000000000040
ENDCHAR
STARTCHAR 006D
ENCODING 109
SWIDTH 977 0
DWIDTH 38 0
BBX 34 40 2 -8
BITMAP
003FFE0000
003FFE0000
003FFE0000
003FFE0000
003FFE0000
003FFE0000
003FFE0000
003FFE0000
003FFE0000
003FFE0000
003FFE0000
003FFE0000
003FFE0000
003FFE0000
003FFE0000
003FFE0000
003FFE0000
003FFE0000
003FFE0000
003FFE0000
003FFE0000
803FFE0040
7FFFFFFF80
3FFFFFFF00
1FFFFFFE00
0FFFFFFC00
07FFFFF800
03FFFFF000
01FFFFE000
00FFFFC000
007FFFC000
007FFF8000
003FFF0000
001FFE0000
000FFC0000
0007F80000
0003F00000
0001E00000
0000C00000
0000400000
ENDCHAR
STARTCHAR 006E
ENCODING 110
SWIDTH 977 0
DWIDTH 38 0
BBX 38 31 0 -3
BITMAP
0000800000
0001800000
0003800000
0007800000
000F800000
001F800000
003F800000
007F800000
00FF800000
01FFFFFFFC
03FFFFFFFC
07FFFFFFFC
0FFFFFFFFC
3FFFFFFFFC
7FFFFFFFFC
FFFFFFFFFC
7FFFFFFFFC
3FFFFFFFFC
1FFFFFFFFC
07FFFFFFFC
03FFFFFFFC
01FFFFFFFC
00FF800000
007F800000
003F800000
001F800000
000F800000
0007800000
0003800000
0001800000
0000800000
ENDCHAR
STARTCHAR 006F
ENCODING 111
SWIDTH 977 0
DWIDTH 38 0
BBX 38 31 0 -3
BITMAP
0000040000
0000060000
0000070000
0000078000
000007C000
000007E000
000007F000
000007F800
000007FC00
FFFFFFFE00
FFFFFFFF00
FFFFFFFF80
FFFFFFFFC0
FFFFFFFFE0
FFFFFFFFF8
FFFFFFFFFC
FFFFFFFFF8
FFFFFFFFF0
FFFFFFFFE0
FFFFFFFF80
FFFFFFFF00
FFFFFFFE00
000007FC00
000007F800
000007F000
000007E000
000007C000
0000078000
0000070000
0000060000
0000040000
ENDCHAR
STARTCHAR 0070
ENCODING 112
SWIDTH 977 0
DWIDTH 38 0
BBX 34 40 2 -8
BITMAP
0000C00000
0001E00000
0003F00000
0003F80000
0007FC0000
000FFC0000
001FFE0000
003FFF0000
007FFF8000
00FFFFC000
01FFFFE000
03FFFFF000
07FFFFF800
0FFFFFFC00
1FFFFFFE00
3FFFFFFF00
3FFFFFFF80
FFFFFFFFC0
003FFE0000
003FFE0000
003FFE0000
003FFE0000
003FFE0000
003FFE0000
003FFE0000
003FFE0000
003FFE0000
003FFE0000
003FFE0000
003FFE0000
003FFE0000
003FFE0000
003FFE0000
003FFE0000
003FFE0000
003FFE0000
003FFE0000
003FFE0000
003FFE0000
003FFE0000
ENDCHAR
STARTCHAR 0071
ENCODING 113
SWIDTH 977 0
DWIDTH 38 0
BBX 34 40 2 -8
BITMAP
0000010000
0000030000
0000038000
000007C000
000007C000
00000FE000
00001FE000
00001FF000
00003FF000
00003FF800
FC007FFC00
FC007FFC00
FC00FFFE00
FC01FFFE00
FC01FFFF00
FC03FFFF80
FC03FFFF80
FC07FFFFC0
FC000FC000
FC000FC000
FC000FC000
FC000FC000
FC000FC000
FC000FC000
FC000FC000
FC000FC000
FC000FC000
FC000FC000
FE000FC000
FE001FC000
7F001FC000
7F803F8000
3FC0FF8000
3FFFFF0000
1FFFFF0000
0FFFFE0000
07FFFC0000
03FFF00000
00FFE00000
000C000000
ENDCHAR
STARTCHAR 0072
ENCODING 114
SWIDTH 977 0
DWIDTH 38 0
BBX 38 32 0 -4
BITMAP
0000C00000
0003C00000
0007C00000
001FC00000
007FC00000
00FFC00000
03FFC00000
0FFFFFF800
3FFFFFFF00
FFFFFFFF80
3FFFFFFFC0
1FFFFFFFE0
07FFFFFFF0
01FFC00FF0
007FC003F8
003FC001F8
000FC001F8
0003C000FC
0000C000FC
00004000FC
00000000FC
00000001FC
00000001F8
00000003F8
00000007F8
0000001FF0
003FFFFFE0
003FFFFFE0
003FFFFFC0
003FFFFF00
003FFFFE00
003FFFC000
ENDCHAR
STARTCHAR 0073
ENCODING 115
SWIDTH 977 0
DWIDTH 38 0
BBX 38 29 0 -2
BITMAP
0001FE0000
003FFFF000
00FFFFFC00
03FFFFFF00
07FFFFFF80
0FFFFFFFC0
1FFFFFFFE0
3FFFFFFFF0
7FFFFFFFF8
7FFFFFFFF8
7FFFFFFFF8
FFFFFFFFFC
FFFFFFFFFC
FFFFFFFFFC
FFFFFFFFFC
7FFFFFFFF8
7FFFFFFFF8
3FFFFFFFF0
3FFFFFFFF0
1FFFFFFFE0
0FFFFFFFC0
03FFFFFF00
01FFFFFC00
007FFFF000
000FFF0000
0007E00000
0007C00000
0007800000
003E000000
ENDCHAR
STARTCHAR 0074
ENCODING 116
SWIDTH 977 0
DWIDTH 38 0
BBX 38 31 0 -3
BITMAP
7FFFFFFFF8
FFFFFFFFFC
FFFFFFFFFC
FFFFFFFFFC
FFFFFFFFFC
FFFFFFFFFC
FFFFFFFFFC
FFFFFFFFFC
FFFFFFFFFC
FFFFFFFFFC
FFFFFFFFFC
FFFFFFFFFC
FFFFFFFFFC
FFFFFFFFFC
FFFFFFFFFC
FFFFFFFFFC
FFFFFFFFFC
FFFFFFFFFC
FFFFFFFFFC
FFFFFFFFFC
FFFFFFFFFC
FFFFFFFFFC
FFFFFFFFFC
7FFFFFFFF8
0000F80000
0000F00000
0001E00000
0001C00000
0003000000
0002000000
0004000000
ENDCHAR
STARTCHAR 0075
ENCODING 117
SWIDTH 977 0
DWIDTH 38 0
BBX 38 29 0 -2
BITMAP
0007FF8000
003FFFF000
00FFFFFC00
03FFFFFF00
0FFFFFFF80
1FFFFFFFE0
3FFFFFFFF0
3FFFFFFFF0
7FFFFFFFF8
7FFFFFFFF8
FFFFFFFFFC
FFFFFFFFFC
FFFFFFFFFC
FFFFFFFFFC
FFFFFFFFFC
7FFFFFFFF8
7FFFFFFFF8
3FFFFFFFF0
3FFFFFFFF0
1FFFFFFFE0
07FFFFFFC0
03FFFFFF00
00FFFFFE00
003FFFF000
0003FF8000
00001F8000
00000F8000
000007C000
000000F000
ENDCHAR
STARTCHAR 0076
ENCODING 118
SWIDTH 977 0
DWIDTH 38 0
BBX 38 32 0 -4
BITMAP
7FFFFFFFF8
FFFFFFFFFC
FFFFFFFFFC
FFFFFFFFFC
FFFFFFFFFC
FFFFFFFFFC
FFFFFFFFFC
FFFFFFFFFC
FFFFFFFFFC
FFFFFFFFFC
FFFFFFFFFC
FFFFFFFFFC
FFFFFFFFFC
FFFFFFFFFC
FFFFFFFFFC
FFFFFFFFFC
FFFFFFFFFC
FFFFFFFFFC
FFFFFFFFFC
FFFFFFFFFC
FFFFFFFFFC
FFFFFFFFFC
FFFFFFFFFC
7FFFFFFFF8
00007C0000
00003C0000
00001E0000
00000E0000
0000030000
0000010000
0000008000
0000004000
ENDCHAR
STARTCHAR 0077
ENCODING 119
SWIDTH 977 0
DWIDTH 38 0
BBX 38 37 0 -6
BITMAP
0000780000
0000FC0000
0000FE0000
0001FE0000
0081FE0600
03E3FE1F00
07FFFFBF80
07FFFFFF80
07FFFFFF80
07FFFFFF80
03FFFFFF00
01FFFFFE00
03FFFFFC00
03FF03FE00
07FE01FE00
3FFC00FFF0
7FF8007FF8
FFF8007FFC
FFF8007FFC
FFF8007FFC
7FF8007FF8
3FFC00FFF0
03FC00FE00
03FE01FC00
01FFCFFC00
01FFFFFE00
03FFFFFF00
07FFFFFF80
07FFFFFF80
07FFFFFF80
07F3FE3F80
07E1FE1F80
01C1FE0F00
0001FE0000
0001FE0000
0000FC0000
0000780000
ENDCHAR
STARTCHAR 0078
ENCODING 120
SWIDTH 977 0
DWIDTH 38 0
BBX 38 31 0 -3
BITMAP
08E0000000
1CE0000000
1FE0000000
0FFE000000
6FFE000000
FC7C000000
F83C070000
383C0F8700
1C3E0F8F80
7E7E0FFF80
7FFC1FFF80
7FF3FFFF00
07F3FFFF00
0737FFFF30
0603FF3FF8
0001FC0FFC
0001F807FC
0001F807F8
0001F807E0
0007F807C0
0007F807C0
000FFC0FE0
0007FF3FF0
0003FFFFF8
00003FFFF8
00003FFCF0
00003FFC00
00007E7C00
00007C7C00
00003C7C00
0000003C00
ENDCHAR
STARTCHAR 0079
ENCODING 121
SWIDTH 977 0
DWIDTH 38 0
BBX 38 33 0 -4
BITMAP
000FE00000
003FF80F80
007FFC3FE0
00FFC73FF0
01FE007E00
03FE007E00
07FE007FF8
07FF007FF0
0FFF80FFF0
3FBFC0FFE0
FF0FE1FF80
7E07F3FF00
7E03FFFF00
3E00FFF980
0C007FE000
00003FC000
00007F8000
0000FFC000
0003FFE000
0007FFF000
000FF3F800
001FE1FC00
007FC0FE00
00FF807F00
01FF003F80
03FE001FC0
07FC001FE0
1FF8000FF0
1FF00007FC
1FE00003F8
1FC00001F0
0F800000E0
0600000040
ENDCHAR
STARTCHAR 007A
ENCODING 122
SWIDTH 977 0
DWIDTH 38 0
BBX 38 37 0 -6
BITMAP
0000020000
0000020000
0000060000
00000E0000
00001C0000
00003C0000
00007C0000
00007C0000
0000780000
0000780000
0000780000
0000F80000
0000F80000
0000F00000
0000F0000C
0001F000F8
07C1F01FE0
1FF1F1FFC0
3FF9FFFF80
7FFFFFFF00
787FFFFC00
F83FFF8000
F87FF80000
FFFFC00000
7FF3E00000
7FE7F00000
1FCFF80000
001FF80000
001E780000
003E380000
003C380000
003C380000
003C780000
003FF00000
001FF00000
001FE00000
0007C00000
ENDCHAR
STARTCHAR 007B
ENCODING 123
SWIDTH 977 0
DWIDTH 38 0
BBX 38 35 0 -5
BITMAP
0000007F00
0000003C00
0000003E00
0000003F80
0000001780
00000013C0
00000001E0
00000001E0
00000000F0
0000000070
0000000078
0000000038
0000000038
000000003C
000000003C
000000003C
F00000003C
F00000003C
F00000003C
700000003C
7000000038
7000000038
7800000078
3800000070
3C000000F0
1C000000F0
1E000001E0
0F000003C0
0780000780
07E0001F80
03F8007F00
00FF03FC00
007FFFF800
001FFFE000
0003FF0000
ENDCHAR
STARTCHAR 007C
ENCODING 124
SWIDTH 977 0
DWIDTH 38 0
BBX 38 35 0 -5
BITMAP
03F8000000
00F8000000
01F0000000
03F0000000
07F0000000
0F20000000
1E20000000
1E00000000
3C00000000
3800000000
7800000000
7000000000
7000000000
7000000000
F000000000
F000000000
F000000000
F00000003C
F00000003C
F00000003C
7000000038
7000000038
7800000078
3800000070
3C000000F0
3C000000E0
1E000001E0
0F000003C0
0F800007C0
07E0000F80
03F0003F00
00FE01FC00
007FFFF800
001FFFE000
0007FF8000
ENDCHAR
STARTCHAR 007D
ENCODING 125
SWIDTH 488 0
DWIDTH 19 0
BBX 0 0 0 0
BITMAP
ENDCHAR
STARTCHAR 007E
ENCODING 126
SWIDTH 488 0
DWIDTH 19 0
BBX 0 0 0 0
BITMAP
ENDCHAR
STARTCHAR 00A0
ENCODING 160
SWIDTH 257 0
DWIDTH 10 0
BBX 0 0 0 0
BITMAP
ENDCHAR
STARTCHAR 00A1
ENCODING 161
SWIDTH 334 0
DWIDTH 13 0
BBX 0 0 0 0
BITMAP
ENDCHAR
STARTCHAR 00A2
ENCODING 162
SWIDTH 565 0
DWIDTH 22 0
BBX 0 0 0 0
BITMAP
ENDCHAR
STARTCHAR 00A3
ENCODING 163
SWIDTH 488 0
DWIDTH 19 0
BBX 0 0 0 0
BITMAP
ENDCHAR
STARTCHAR 00A4
ENCODING 164
SWIDTH 488 0
DWIDTH 19 0
BBX 0 0 0 0
BITMAP
ENDCHAR
STARTCHAR 00A5
ENCODING 165
SWIDTH 617 0
DWIDTH 24 0
BBX 0 0 0 0
BITMAP
ENDCHAR
STARTCHAR 00A6
ENCODING 166
SWIDTH 488 0
DWIDTH 19 0
BBX 0 0 0 0
BITMAP
ENDCHAR
STARTCHAR 00A7
ENCODING 167
SWIDTH 488 0
DWIDTH 19 0
BBX 0 0 0 0
BITMAP
ENDCHAR
STARTCHAR 00A8
ENCODING 168
SWIDTH 514 0
DWIDTH 20 0
BBX 0 0 0 0
BITMAP
ENDCHAR
STARTCHAR 00A9
ENCODING 169
SWIDTH 822 0
DWIDTH 32 0
BBX 0 0 0 0
BITMAP
ENDCHAR
STARTCHAR 00AA
ENCODING 170
SWIDTH 308 0
DWIDTH 12 0
BBX 0 0 0 0
BITMAP
ENDCHAR
STARTCHAR 00AB
ENCODING 171
SWIDTH 462 0
DWIDTH 18 0
BBX 0 0 0 0
BITMAP
ENDCHAR
STARTCHAR 00AC
ENCODING 172
SWIDTH 488 0
DWIDTH 19 0
BBX 0 0 0 0
BITMAP
ENDCHAR
STARTCHAR 00AD
ENCODING 173
SWIDTH 977 0
DWIDTH 38 0
BBX 38 37 0 -6
BITMAP
0003FF0000
001FFFE000
007F03F800
00F8007C00
01E0001E00
0380000700
0700000380
0F800041C0
1CC000C0E0
186001C060
383003C070
301807C030
700E0FC038
60001FC018
600FFFC018
600FFFC01C
E00FFFC01C
E00FFFC01C
E00FFFC01C
E00FFFC01C
E00FFFC01C
E00FFFC01C
600FFFC018
60001FC018
70000FC038
300007C030
380003D070
180001D870
1C0000CCE0
0E0000C7C0
07000003C0
0780000780
03C0000F00
00F0003C00
007E01F800
001FFFE000
0007FF8000
ENDCHAR
STARTCHAR 00AE
ENCODING 174
SWIDTH 822 0
DWIDTH 32 0
BBX 0 0 0 0
BITMAP
ENDCHAR
STARTCHAR 00AF
ENCODING 175
SWIDTH 334 0
DWIDTH 13 0
BBX 0 0 0 0
BITMAP
ENDCHAR
STARTCHAR 00B0
ENCODING 176
SWIDTH 334 0
DWIDTH 13 0
BBX 0 0 0 0
BITMAP
ENDCHAR
STARTCHAR 00B1
ENCODING 177
SWIDTH 488 0
DWIDTH 19 0
BBX 0 0 0 0
BITMAP
ENDCHAR
STARTCHAR 00B2
ENCODING 178
SWIDTH 488 0
DWIDTH 19 0
BBX 0 0 0 0
BITMAP
ENDCHAR
STARTCHAR 00B3
ENCODING 179
SWIDTH 488 0
DWIDTH 19 0
BBX 0 0 0 0
BITMAP
ENDCHAR
STARTCHAR 00B4
ENCODING 180
SWIDTH 514 0
DWIDTH 20 0
BBX 0 0 0 0
BITMAP
ENDCHAR
STARTCHAR 00B5
ENCODING 181
SWIDTH 565 0
DWIDTH 22 0
BBX 0 0 0 0
BITMAP
ENDCHAR
STARTCHAR 00B6
ENCODING 182
SWIDTH 514 0
DWIDTH 20 0
BBX 0 0 0 0
BITMAP
ENDCHAR
STARTCHAR 00B7
ENCODING 183
SWIDTH 257 0
DWIDTH 10 0
BBX 0 0 0 0
BITMAP
ENDCHAR
STARTCHAR 00B8
ENCODING 184
SWIDTH 514 0
DWIDTH 20 0
BBX 0 0 0 0
BITMAP
ENDCHAR
STARTCHAR 00B9
ENCODING 185
SWIDTH 488 0
DWIDTH 19 0
BBX 0 0 0 0
BITMAP
ENDCHAR
STARTCHAR 00BA
ENCODING 186
SWIDTH 360 0
DWIDTH 14 0
BBX 0 0 0 0
BITMAP
ENDCHAR
STARTCHAR 00BB
ENCODING 187
SWIDTH 462 0
DWIDTH 18 0
BBX 0 0 0 0
BITMAP
ENDCHAR
STARTCHAR 00BC
ENCODING 188
SWIDTH 848 0
DWIDTH 33 0
BBX 0 0 0 0
BITMAP
ENDCHAR
STARTCHAR 00BD
ENCODING 189
SWIDTH 951 0
DWIDTH 37 0
BBX 0 0 0 0
BITMAP
ENDCHAR
STARTCHAR 00BE
ENCODING 190
SWIDTH 848 0
DWIDTH 33 0
BBX 0 0 0 0
BITMAP
ENDCHAR
STARTCHAR 00BF
ENCODING 191
SWIDTH 360 0
DWIDTH 14 0
BBX 0 0 0 0
BITMAP
ENDCHAR
STARTCHAR 00C0
ENCODING 192
SWIDTH 745 0
DWIDTH 29 0
BBX 0 0 0 0
BITMAP
ENDCHAR
STARTCHAR 00C1
ENCODING 193
SWIDTH 745 0
DWIDTH 29 0
BBX 0 0 0 0
BITMAP
ENDCHAR
STARTCHAR 00C2
ENCODING 194
SWIDTH 745 0
DWIDTH 29 0
BBX 0 0 0 0
BITMAP
ENDCHAR
STARTCHAR 00C3
ENCODING 195
SWIDTH 745 0
DWIDTH 29 0
BBX 0 0 0 0
BITMAP
ENDCHAR
STARTCHAR 00C4
ENCODING 196
SWIDTH 745 0
DWIDTH 29 0
BBX 0 0 0 0
BITMAP
ENDCHAR
STARTCHAR 00C5
ENCODING 197
SWIDTH 745 0
DWIDTH 29 0
BBX 0 0 0 0
BITMAP
ENDCHAR
STARTCHAR 00C6
ENCODING 198
SWIDTH 1028 0
DWIDTH 40 0
BBX 0 0 0 0
BITMAP
ENDCHAR
STARTCHAR 00C7
ENCODING 199
SWIDTH 694 0
DWIDTH 27 0
BBX 0 0 0 0
BITMAP
ENDCHAR
STARTCHAR 00C8
ENCODING 200
SWIDTH 565 0
DWIDTH 22 0
BBX 0 0 0 0
BITMAP
ENDCHAR
STARTCHAR 00C9
ENCODING 201
SWIDTH 565 0
DWIDTH 22 0
BBX 0 0 0 0
BITMAP
ENDCHAR
STARTCHAR 00CA
ENCODING 202
SWIDTH 565 0
DWIDTH 22 0
BBX 0 0 0 0
BITMAP
ENDCHAR
STARTCHAR 00CB
ENCODING 203
SWIDTH 565 0
DWIDTH 22 0
BBX 0 0 0 0
BITMAP
ENDCHAR
STARTCHAR 00CC
ENCODING 204
SWIDTH 334 0
DWIDTH 13 0
BBX 0 0 0 0
BITMAP
ENDCHAR
STARTCHAR 00CD
ENCODING 205
SWIDTH 334 0
DWIDTH 13 0
BBX 0 0 0 0
BITMAP
ENDCHAR
STARTCHAR 00CE
ENCODING 206
SWIDTH 334 0
DWIDTH 13 0
BBX 0 0 0 0
BITMAP
ENDCHAR
STARTCHAR 00CF
ENCODING 207
SWIDTH 334 0
DWIDTH 13 0
BBX 0 0 0 0
BITMAP
ENDCHAR
STARTCHAR 00D0
ENCODING 208
SWIDTH 745 0
DWIDTH 29 0
BBX 0 0 0 0
BITMAP
ENDCHAR
STARTCHAR 00D1
ENCODING 209
SWIDTH 771 0
DWIDTH 30 0
BBX 0 0 0 0
BITMAP
ENDCHAR
STARTCHAR 00D2
ENCODING 210
SWIDTH 797 0
DWIDTH 31 0
BBX 0 0 0 0
BITMAP
ENDCHAR
STARTCHAR 00D3
ENCODING 211
SWIDTH 797 0
DWIDTH 31 0
BBX 0 0 0 0
BITMAP
ENDCHAR
STARTCHAR 00D4
ENCODING 212
SWIDTH 797 0
DWIDTH 31 0
BBX 0 0 0 0
BITMAP
ENDCHAR
STARTCHAR 00D5
ENCODING 213
SWIDTH 797 0
DWIDTH 31 0
BBX 0 0 0 0
BITMAP
ENDCHAR
STARTCHAR 00D6
ENCODING 214
SWIDTH 797 0
DWIDTH 31 0
BBX 0 0 0 0
BITMAP
ENDCHAR
STARTCHAR 00D7
ENCODING 215
SWIDTH 488 0
DWIDTH 19 0
BBX 0 0 0 0
BITMAP
ENDCHAR
STARTCHAR 00D8
ENCODING 216
SWIDTH 797 0
DWIDTH 31 0
BBX 0 0 0 0
BITMAP
ENDCHAR
STARTCHAR 00D9
ENCODING 217
SWIDTH 745 0
DWIDTH 29 0
BBX 0 0 0 0
BITMAP
ENDCHAR
STARTCHAR 00DA
ENCODING 218
SWIDTH 745 0
DWIDTH 29 0
BBX 0 0 0 0
BITMAP
ENDCHAR
STARTCHAR 00DB
ENCODING 219
SWIDTH 745 0
DWIDTH 29 0
BBX 0 0 0 0
BITMAP
ENDCHAR
STARTCHAR 00DC
ENCODING 220
SWIDTH 745 0
DWIDTH 29 0
BBX 0 0 0 0
BITMAP
ENDCHAR
STARTCHAR 00DD
ENCODING 221
SWIDTH 591 0
DWIDTH 23 0
BBX 0 0 0 0
BITMAP
ENDCHAR
STARTCHAR 00DE
ENCODING 222
SWIDTH 540 0
DWIDTH 21 0
BBX 0 0 0 0
BITMAP
ENDCHAR
STARTCHAR 00DF
ENCODING 223
SWIDTH 617 0
DWIDTH 24 0
BBX 0 0 0 0
BITMAP
ENDCHAR
STARTCHAR 00E0
ENCODING 224
SWIDTH 462 0
DWIDTH 18 0
BBX 0 0 0 0
BITMAP
ENDCHAR
STARTCHAR 00E1
ENCODING 225
SWIDTH 462 0
DWIDTH 18 0
BBX 0 0 0 0
BITMAP
ENDCHAR
STARTCHAR 00E2
ENCODING 226
SWIDTH 462 0
DWIDTH 18 0
BBX 0 0 0 0
BITMAP
ENDCHAR
STARTCHAR 00E3
ENCODING 227
SWIDTH 462 0
DWIDTH 18 0
BBX 0 0 0 0
BITMAP
ENDCHAR
STARTCHAR 00E4
ENCODING 228
SWIDTH 462 0
DWIDTH 18 0
BBX 0 0 0 0
BITMAP
ENDCHAR
STARTCHAR 00E5
ENCODING 229
SWIDTH 462 0
DWIDTH 18 0
BBX 0 0 0 0
BITMAP
ENDCHAR
STARTCHAR 00E6
ENCODING 230
SWIDTH 720 0
DWIDTH 28 0
BBX 0 0 0 0
BITMAP
ENDCHAR
STARTCHAR 00E7
ENCODING 231
SWIDTH 437 0
DWIDTH 17 0
BBX 0 0 0 0
BITMAP
ENDCHAR
STARTCHAR 00E8
ENCODING 232
SWIDTH 437 0
DWIDTH 17 0
BBX 0 0 0 0
BITMAP
ENDCHAR
STARTCHAR 00E9
ENCODING 233
SWIDTH 437 0
DWIDTH 17 0
BBX 0 0 0 0
BITMAP
ENDCHAR
STARTCHAR 00EA
ENCODING 234
SWIDTH 437 0
DWIDTH 17 0
BBX 0 0 0 0
BITMAP
ENDCHAR
STARTCHAR 00EB
ENCODING 235
SWIDTH 437 0
DWIDTH 17 0
BBX 0 0 0 0
BITMAP
ENDCHAR
STARTCHAR 00EC
ENCODING 236
SWIDTH 257 0
DWIDTH 10 0
BBX 0 0 0 0
BITMAP
ENDCHAR
STARTCHAR 00ED
ENCODING 237
SWIDTH 257 0
DWIDTH 10 0
BBX 0 0 0 0
BITMAP
ENDCHAR
STARTCHAR 00EE
ENCODING 238
SWIDTH 257 0
DWIDTH 10 0
BBX 0 0 0 0
BITMAP
ENDCHAR
STARTCHAR 00EF
ENCODING 239
SWIDTH 257 0
DWIDTH 10 0
BBX 0 0 0 0
BITMAP
ENDCHAR
STARTCHAR 00F0
ENCODING 240
SWIDTH 565 0
DWIDTH 22 0
BBX 0 0 0 0
BITMAP
ENDCHAR
STARTCHAR 00F1
ENCODING 241
SWIDTH 540 0
DWIDTH 21 0
BBX 0 0 0 0
BITMAP
ENDCHAR
STARTCHAR 00F2
ENCODING 242
SWIDTH 488 0
DWIDTH 19 0
BBX 0 0 0 0
BITMAP
ENDCHAR
STARTCHAR 00F3
ENCODING 243
SWIDTH 488 0
DWIDTH 19 0
BBX 0 0 0 0
BITMAP
ENDCHAR
STARTCHAR 00F4
ENCODING 244
SWIDTH 488 0
DWIDTH 19 0
BBX 0 0 0 0
BITMAP
ENDCHAR
STARTCHAR 00F5
ENCODING 245
SWIDTH 488 0
DWIDTH 19 0
BBX 0 0 0 0
BITMAP
ENDCHAR
STARTCHAR 00F6
ENCODING 246
SWIDTH 488 0
DWIDTH 19 0
BBX 0 0 0 0
BITMAP
ENDCHAR
STARTCHAR 00F7
ENCODING 247
SWIDTH 488 0
DWIDTH 19 0
BBX 0 0 0 0
BITMAP
ENDCHAR
STARTCHAR 00F8
ENCODING 248
SWIDTH 488 0
DWIDTH 19 0
BBX 0 0 0 0
BITMAP
ENDCHAR
STARTCHAR 00F9
ENCODING 249
SWIDTH 514 0
DWIDTH 20 0
BBX 0 0 0 0
BITMAP
ENDCHAR
STARTCHAR 00FA
ENCODING 250
SWIDTH 514 0
DWIDTH 20 0
BBX 0 0 0 0
BITMAP
ENDCHAR
STARTCHAR 00FB
ENCODING 251
SWIDTH 514 0
DWIDTH 20 0
BBX 0 0 0 0
BITMAP
ENDCHAR
STARTCHAR 00FC
ENCODING 252
SWIDTH 514 0
DWIDTH 20 0
BBX 0 0 0 0
BITMAP
ENDCHAR
STARTCHAR 00FD
ENCODING 253
SWIDTH 437 0
DWIDTH 17 0
BBX 0 0 0 0
BITMAP
ENDCHAR
STARTCHAR 00FE
ENCODING 254
SWIDTH 488 0
DWIDTH 19 0
BBX 0 0 0 0
BITMAP
ENDCHAR
STARTCHAR 00FF
ENCODING 255
SWIDTH 437 0
DWIDTH 17 0
BBX 0 0 0 0
BITMAP
ENDCHAR
STARTCHAR 0131
ENCODING 305
SWIDTH 257 0
DWIDTH 10 0
BBX 0 0 0 0
BITMAP
ENDCHAR
STARTCHAR 02C6
ENCODING 710
SWIDTH 514 0
DWIDTH 20 0
BBX 0 0 0 0
BITMAP
ENDCHAR
STARTCHAR 02C7
ENCODING 711
SWIDTH 514 0
DWIDTH 20 0
BBX 0 0 0 0
BITMAP
ENDCHAR
STARTCHAR 02C9
ENCODING 713
SWIDTH 514 0
DWIDTH 20 0
BBX 0 0 0 0
BITMAP
ENDCHAR
STARTCHAR 02D8
ENCODING 728
SWIDTH 514 0
DWIDTH 20 0
BBX 0 0 0 0
BITMAP
ENDCHAR
STARTCHAR 02D9
ENCODING 729
SWIDTH 514 0
DWIDTH 20 0
BBX 0 0 0 0
BITMAP
ENDCHAR
STARTCHAR 02DA
ENCODING 730
SWIDTH 514 0
DWIDTH 20 0
BBX 0 0 0 0
BITMAP
ENDCHAR
STARTCHAR 02DB
ENCODING 731
SWIDTH 514 0
DWIDTH 20 0
BBX 0 0 0 0
BITMAP
ENDCHAR
STARTCHAR 02DC
ENCODING 732
SWIDTH 514 0
DWIDTH 20 0
BBX 0 0 0 0
BITMAP
ENDCHAR
STARTCHAR 02DD
ENCODING 733
SWIDTH 514 0
DWIDTH 20 0
BBX 0 0 0 0
BITMAP
ENDCHAR
STARTCHAR 037E
ENCODING 894
SWIDTH 977 0
DWIDTH 38 0
BBX 38 38 0 -7
BITMAP
0000300000
0000300000
0000300000
0000300000
0000300000
0000300000
0000300000
0000300000
0000300000
0000300000
0000300000
0000300000
0000300000
0000300000
0000300000
0000300000
0000300000
FFFFFFFFFC
FFFFFFFFFC
FFFFFFFFFC
0000300000
0000300000
0000300000
0000300000
0000300000
0000300000
0000300000
0000300000
0000300000
0000300000
0000300000
0000300000
0000300000
0000300000
0000300000
0000300000
0000300000
0000300000
ENDCHAR
STARTCHAR 2013
ENCODING 8211
SWIDTH 540 0
DWIDTH 21 0
BBX 0 0 0 0
BITMAP
ENDCHAR
STARTCHAR 2014
ENCODING 8212
SWIDTH 1002 0
DWIDTH 39 0
BBX 0 0 0 0
BITMAP
ENDCHAR
STARTCHAR 2018
ENCODING 8216
SWIDTH 282 0
DWIDTH 11 0
BBX 0 0 0 0
BITMAP
ENDCHAR
STARTCHAR 2019
ENCODING 8217
SWIDTH 282 0
DWIDTH 11 0
BBX 0 0 0 0
BITMAP
ENDCHAR
STARTCHAR 201A
ENCODING 8218
SWIDTH 282 0
DWIDTH 11 0
BBX 0 0 0 0
BITMAP
ENDCHAR
STARTCHAR 201C
ENCODING 8220
SWIDTH 437 0
DWIDTH 17 0
BBX 0 0 0 0
BITMAP
ENDCHAR
STARTCHAR 201D
ENCODING 8221
SWIDTH 437 0
DWIDTH 17 0
BBX 0 0 0 0
BITMAP
ENDCHAR
STARTCHAR 201E
ENCODING 8222
SWIDTH 437 0
DWIDTH 17 0
BBX 0 0 0 0
BITMAP
ENDCHAR
STARTCHAR 2020
ENCODING 8224
SWIDTH 488 0
DWIDTH 19 0
BBX 0 0 0 0
BITMAP
ENDCHAR
STARTCHAR 2021
ENCODING 8225
SWIDTH 488 0
DWIDTH 19 0
BBX 0 0 0 0
BITMAP
ENDCHAR
STARTCHAR 2022
ENCODING 8226
SWIDTH 514 0
DWIDTH 20 0
BBX 0 0 0 0
BITMAP
ENDCHAR
STARTCHAR 2026
ENCODING 8230
SWIDTH 1002 0
DWIDTH 39 0
BBX 0 0 0 0
BITMAP
ENDCHAR
STARTCHAR 2039
ENCODING 8249
SWIDTH 308 0
DWIDTH 12 0
BBX 0 0 0 0
BITMAP
ENDCHAR
STARTCHAR 203A
ENCODING 8250
SWIDTH 308 0
DWIDTH 12 0
BBX 0 0 0 0
BITMAP
ENDCHAR
STARTCHAR 2044
ENCODING 8260
SWIDTH 180 0
DWIDTH 7 0
BBX 0 0 0 0
BITMAP
ENDCHAR
STARTCHAR 20A3
ENCODING 8355
SWIDTH 488 0
DWIDTH 19 0
BBX 0 0 0 0
BITMAP
ENDCHAR
STARTCHAR 20A4
ENCODING 8356
SWIDTH 488 0
DWIDTH 19 0
BBX 0 0 0 0
BITMAP
ENDCHAR
STARTCHAR 20A7
ENCODING 8359
SWIDTH 1002 0
DWIDTH 39 0
BBX 0 0 0 0
BITMAP
ENDCHAR
STARTCHAR 20AC
ENCODING 8364
SWIDTH 488 0
DWIDTH 19 0
BBX 0 0 0 0
BITMAP
ENDCHAR
STARTCHAR 2116
ENCODING 8470
SWIDTH 1105 0
DWIDTH 43 0
BBX 0 0 0 0
BITMAP
ENDCHAR
STARTCHAR 2122
ENCODING 8482
SWIDTH 745 0
DWIDTH 29 0
BBX 0 0 0 0
BITMAP
ENDCHAR
STARTCHAR 2202
ENCODING 8706
SWIDTH 488 0
DWIDTH 19 0
BBX 0 0 0 0
BITMAP
ENDCHAR
STARTCHAR 2206
ENCODING 8710
SWIDTH 540 0
DWIDTH 21 0
BBX 0 0 0 0
BITMAP
ENDCHAR
STARTCHAR 220F
ENCODING 8719
SWIDTH 745 0
DWIDTH 29 0
BBX 0 0 0 0
BITMAP
ENDCHAR
STARTCHAR 2211
ENCODING 8721
SWIDTH 591 0
DWIDTH 23 0
BBX 0 0 0 0
BITMAP
ENDCHAR
STARTCHAR 2212
ENCODING 8722
SWIDTH 488 0
DWIDTH 19 0
BBX 0 0 0 0
BITMAP
ENDCHAR
STARTCHAR 2215
ENCODING 8725
SWIDTH 180 0
DWIDTH 7 0
BBX 0 0 0 0
BITMAP
ENDCHAR
STARTCHAR 2219
ENCODING 8729
SWIDTH 257 0
DWIDTH 10 0
BBX 0 0 0 0
BITMAP
ENDCHAR
STARTCHAR 221A
ENCODING 8730
SWIDTH 488 0
DWIDTH 19 0
BBX 0 0 0 0
BITMAP
ENDCHAR
STARTCHAR 221E
ENCODING 8734
SWIDTH 488 0
DWIDTH 19 0
BBX 0 0 0 0
BITMAP
ENDCHAR
STARTCHAR 222B
ENCODING 8747
SWIDTH 334 0
DWIDTH 13 0
BBX 0 0 0 0
BITMAP
ENDCHAR
STARTCHAR 2248
ENCODING 8776
SWIDTH 488 0
DWIDTH 19 0
BBX 0 0 0 0
BITMAP
ENDCHAR
STARTCHAR 2264
ENCODING 8804
SWIDTH 488 0
DWIDTH 19 0
BBX 0 0 0 0
BITMAP
ENDCHAR
STARTCHAR 2265
ENCODING 8805
SWIDTH 488 0
DWIDTH 19 0
BBX 0 0 0 0
BITMAP
ENDCHAR
STARTCHAR F001
ENCODING 61441
SWIDTH 514 0
DWIDTH 20 0
BBX 0 0 0 0
BITMAP
ENDCHAR
STARTCHAR F002
ENCODING 61442
SWIDTH 540 0
DWIDTH 21 0
BBX 0 0 0 0
BITMAP
ENDCHAR
STARTCHAR FB01
ENCODING 64257
SWIDTH 514 0
DWIDTH 20 0
BBX 0 0 0 0
BITMAP
ENDCHAR
STARTCHAR FB02
ENCODING 64258
SWIDTH 540 0
DWIDTH 21 0
BBX 0 0 0 0
BITMAP
ENDCHAR
ENDFONT
